<svg xmlns="http://www.w3.org/2000/svg" width="32" height="32"><circle cx="16" cy="17" r="14" opacity=".2" fill="#00100f"/><circle cx="16" cy="16" r="14" fill="#5294e2"/><path d="M16 7a4 4 0 1 0 0 8 4 4 0 1 0 0-8zm0 10c-6.999.004-7 4.431-7 4.431v1.8S10.292 26 16 26s7-2.769 7-2.769v-1.8s0-4.434-6.999-4.431z" opacity=".2"/><g fill="#fff"><path d="M16 6a4 4 0 1 0 0 8 4 4 0 1 0 0-8zm0 10c-6.999.004-7 4.431-7 4.431v1.8S10.292 25 16 25s7-2.769 7-2.769v-1.8s0-4.434-6.999-4.431z"/><path d="M16 2A14 14 0 0 0 2 16a14 14 0 0 0 .021.586A14 14 0 0 1 16 3a14 14 0 0 1 13.979 13.414A14 14 0 0 0 30 16 14 14 0 0 0 16 2z" opacity=".2"/></g></svg>