<svg width="160" height="160" viewBox="0 0 160 160" fill="none" xmlns="http://www.w3.org/2000/svg">
<circle cx="80" cy="80" r="80" fill="#333333" fill-opacity="0.3"/>
<path d="M24.89 89.7013C22.445 89.8899 20.4702 88.3805 20.2821 86.3994C20.1881 85.739 20.3762 85.1729 20.6583 84.7012C20.7523 84.6069 20.7523 84.4182 20.7523 84.3239C20.7523 84.1352 20.5642 84.0409 20 83.9465V83.5692L23.3854 83.0975V83.5692C21.5046 84.3239 20.6583 85.456 20.7523 86.4937C20.9404 88.0031 22.539 88.5692 24.6079 88.3805C26.5827 88.1918 28.1813 87.2484 28.0873 85.6446C27.9933 84.3239 27.0529 83.5692 25.1721 83.3805L25.0781 82.8145C27.2409 82.9088 28.5575 84.0409 28.6515 85.739C29.0277 87.7201 27.2409 89.5126 24.89 89.7013Z" fill="white"/>
<path d="M24.5148 75.4561C22.1639 75.0787 20.4712 73.0976 20.8473 71.0221C21.1294 68.9466 23.2923 67.6259 25.6433 68.0032C27.9942 68.3806 29.6869 70.3617 29.3108 72.4372C29.0287 74.5127 26.8658 75.8334 24.5148 75.4561ZM25.4552 69.4183C23.4804 69.041 21.5996 69.5127 21.3175 71.1164C21.0354 72.7202 22.6341 73.6636 24.7029 74.041C26.6777 74.4183 28.5585 74.041 28.8406 72.3428C29.1227 70.7391 27.524 69.7957 25.4552 69.4183Z" fill="white"/>
<path d="M31.0018 62.7198L31.1899 62.2481C31.378 61.7764 31.378 61.5877 30.9078 61.3047L25.5476 58.7575C25.0774 58.5688 24.8893 58.7575 24.7012 59.2292L24.5132 59.7009L24.043 59.5122L25.5476 56.2103L26.0178 56.399L25.8297 56.7764C25.6416 57.2481 25.6416 57.4367 26.1118 57.7198L28.4628 58.7575L29.9674 55.55L27.6164 54.4179C27.1462 54.2292 26.9582 54.3235 26.7701 54.7952L26.582 55.2669L26.1118 55.0783L27.6164 51.7764L28.0866 51.965L27.8985 52.4367C27.7105 52.9084 27.7105 53.0971 28.1807 53.3801L33.5408 55.9273C34.011 56.116 34.1991 56.0217 34.3872 55.55L34.5753 55.0783L35.0454 55.2669L33.5408 58.5688L33.0706 58.3801L33.2587 57.9084C33.4468 57.4367 33.4468 57.2481 32.9766 56.9651L30.5316 55.833L29.027 59.0405L31.472 60.1726C31.9422 60.3613 32.1303 60.2669 32.3183 59.7952L32.5064 59.4179L32.9766 59.6066L31.472 62.9085L31.0018 62.7198Z" fill="white"/>
<path d="M37.8655 49.9845L38.1476 49.6071C38.4298 49.2298 38.5238 48.9467 38.1476 48.6637L33.6338 44.7958C33.2577 44.5128 33.0696 44.5128 32.6934 44.9845L32.4113 45.3618L32.0352 44.9845L36.3609 39.8901L38.8059 41.7769L38.5238 42.1543C36.9251 41.2109 36.0788 41.0222 34.9503 42.343L34.4801 42.909C34.104 43.2864 34.104 43.5694 34.4801 43.8524L36.455 45.4562L36.8311 44.9845C37.5834 44.0411 37.3013 43.475 36.549 42.8147L36.8311 42.4373L39.7463 44.8901L39.4642 45.3618C38.7119 44.7015 37.9596 44.4184 37.2073 45.3618L36.8311 45.8335L38.994 47.7203C39.3701 48.0033 39.5582 48.0033 39.9344 47.5316L40.5926 46.7769C41.7211 45.4562 41.2509 44.6071 40.0284 43.0977L40.3105 42.7203L42.7555 45.0788L38.3357 50.2675L37.8655 49.9845Z" fill="white"/>
<path d="M45.2977 34.4179L47.8367 38.0971C48.495 39.0405 48.7771 39.0405 49.5294 38.5688L49.6235 38.4745L49.9056 38.9462L47.1785 40.833L46.8964 40.3613L47.0844 40.1726C47.7427 39.7009 47.7427 39.3236 47.1785 38.4745L44.1693 34.0405C43.6991 34.0405 43.3229 34.0405 42.7587 34.4179L42.4766 34.0405L44.3573 32.7198L51.4102 35.1726L49.0592 31.7764C48.401 30.833 48.1189 30.833 47.3666 31.3047L47.2725 31.399L46.9904 30.9273L49.7175 29.0405L49.9996 29.5122L49.8115 29.7009C49.1533 30.1726 49.1533 30.55 49.7175 31.399L53.385 36.7764L52.9148 37.0594L45.2977 34.4179Z" fill="white"/>
<path d="M67.5844 23.4749C67.3023 23.0032 67.0202 22.8146 66.2679 22.9089L66.1738 22.3429L69.7473 21.7768L69.8413 22.3429L69.3711 22.4372C68.995 22.5316 68.8069 22.6259 68.9009 22.9089C68.9009 23.0976 68.995 23.3806 69.1831 23.6636L71.8161 28.3806L72.6625 23.4749C72.6625 22.9089 72.6625 22.6259 72.6625 22.3429C72.6625 22.0599 72.3804 21.9655 72.0042 22.0599L71.628 22.1542L71.534 21.5882L74.4492 21.1165L74.5432 21.4938C73.7909 21.6825 73.6028 21.9655 73.4148 22.8146L72.0042 30.0787L71.44 30.1731L67.5844 23.4749Z" fill="white"/>
<path d="M81.5003 28.5691H81.9705C82.4407 28.6634 82.7228 28.5691 82.7228 28.0031L83.287 22.0597C83.3811 21.588 83.0989 21.3993 82.6287 21.3993H82.1586V20.8333L88.8353 21.4936L88.6472 24.6068H88.177C88.083 22.72 87.7068 21.9653 86.0141 21.7766L85.2618 21.6823C84.6976 21.588 84.5095 21.6823 84.5095 22.2483L84.2274 24.7955H84.8857C86.1082 24.8899 86.3903 24.3238 86.4843 23.2861H86.9545L86.5784 27.154H86.1082C86.2022 26.1163 86.0141 25.4559 84.7916 25.2672L84.1334 25.1729L83.8512 28.0031C83.7572 28.4748 83.9453 28.6634 84.5095 28.6634L85.5439 28.7578C87.2366 28.9465 87.7068 28.0031 88.271 26.2106H88.7412L88.177 29.5125L81.4062 28.8521L81.5003 28.5691Z" fill="white"/>
<path d="M96.1705 31.2106L96.8288 31.3992C97.299 31.5879 97.5811 31.5879 97.6751 31.0219L99.932 24.8898L99.6499 24.7955C98.0513 24.2294 97.487 24.9841 96.5467 26.6823L96.1705 26.4936L97.487 23.3804L104.07 25.8332L103.035 29.0408L102.565 28.8521C102.941 26.9653 103.035 26.0219 101.343 25.4558L101.06 25.3615L98.8036 31.5879C98.6155 32.0596 98.8036 32.2483 99.2738 32.437L99.932 32.6257L99.744 33.0974L95.9824 31.6823L96.1705 31.2106Z" fill="white"/>
<path d="M106.986 35.9276L107.362 36.2106C107.738 36.4936 108.02 36.4936 108.302 36.1162L111.687 31.2106C111.97 30.8332 111.876 30.5502 111.499 30.2672L111.123 29.9841L111.405 29.5125L116.86 33.286L115.167 35.9276L114.791 35.6445C115.637 33.9464 115.637 33.0974 114.226 32.154L113.568 31.6823C113.098 31.3992 112.91 31.3992 112.628 31.7766L111.217 34.0408L111.781 34.4181C112.722 35.0785 113.286 34.7955 113.944 33.9464L114.321 34.2294L112.158 37.437L111.781 37.154C112.346 36.3049 112.534 35.5502 111.593 34.8898L111.029 34.5125L109.336 36.7766C109.054 37.154 109.148 37.437 109.525 37.72L110.371 38.286C111.781 39.2294 112.628 38.6634 113.944 37.3426L114.321 37.6257L112.252 40.2672L106.609 36.3993L106.986 35.9276Z" fill="white"/>
<path d="M121.749 46.9651C122.595 45.7387 122.595 45.267 121.843 44.5123L121.373 43.9462L119.398 45.6443C119.022 45.9274 119.022 46.2104 119.398 46.5877L119.774 47.0594L119.398 47.4368L116.953 44.6066L117.329 44.2293L117.611 44.6066C117.988 44.984 118.176 45.0783 118.552 44.7953L123.066 40.9274C123.442 40.55 123.442 40.3613 123.066 39.984L122.784 39.6066L123.16 39.2292L125.511 42.0594C126.827 43.5689 127.109 44.984 125.981 45.9274C125.04 46.7764 123.818 46.3047 122.784 45.4557L122.689 45.55C122.972 46.3047 123.066 46.9651 122.219 48.2859C121.749 48.9462 121.655 49.2293 121.843 49.3236C122.031 49.5123 122.313 49.5123 122.878 49.0406L123.16 49.4179C122.125 50.267 121.467 50.267 120.997 49.701C120.715 48.9462 120.809 48.3802 121.749 46.9651ZM122.501 44.3236C123.442 45.4557 124.382 45.3613 125.134 44.7009C125.981 43.9462 126.075 43.1915 125.134 42.1538L124.852 41.7764C124.476 41.3991 124.288 41.3047 123.912 41.5877L121.749 43.4745L122.501 44.3236Z" fill="white"/>
<path d="M125.511 54.7952C125.887 55.4555 126.264 55.5499 127.016 55.4555L134.257 54.7952L134.633 55.5499L129.273 61.0216C128.897 61.4933 128.803 61.7763 129.085 62.4367L128.614 62.6254L127.11 59.4178L127.58 59.2291L127.768 59.7008C127.956 60.0782 128.144 60.1725 128.332 60.0782C128.52 59.9838 128.709 59.8895 128.897 59.6065L129.649 58.8518L128.332 56.1159L127.674 56.2103C127.298 56.2103 126.922 56.3046 126.64 56.4933C126.358 56.5876 126.358 56.8706 126.546 57.248L126.734 57.531L126.264 57.7197L125.041 55.0782L125.511 54.7952ZM130.213 58.3801L132.94 55.6442L129.085 56.0216L130.213 58.3801Z" fill="white"/>
<path d="M136.985 68.947L132.566 69.7017C131.437 69.8904 131.249 70.1734 131.437 71.1168V71.3055L130.873 71.3998L130.309 68.0979L130.873 68.0036V68.2866C130.967 69.0413 131.343 69.23 132.377 69.0413L137.644 68.0979C137.832 67.7206 137.926 67.3432 137.832 66.5885L138.396 66.4941L138.772 68.7583L133.6 74.1357L137.644 73.4753C138.772 73.2866 138.96 73.0036 138.772 72.0602V71.8715L139.336 71.7772L139.9 75.0791L139.336 75.1734V74.8904C139.242 74.1357 138.866 73.947 137.832 74.1357L131.437 75.2677L131.343 74.796L136.985 68.947Z" fill="white"/>
<path d="M132.187 84.0409C132.281 83.8522 132.375 83.7579 132.375 83.6635C132.375 83.4748 132.281 83.3805 131.717 83.1918V82.8145L135.008 83.0031V83.4748C133.033 83.8522 132.093 85.0786 131.999 86.3994C131.905 87.2484 132.375 88.0031 133.222 88.0031C134.068 88.0975 134.538 87.6258 135.102 86.022C135.761 84.1352 136.607 83.1918 137.923 83.3805C139.24 83.4748 140.086 84.7013 139.992 86.022C139.898 86.6824 139.71 87.3428 139.334 87.8145C139.24 87.9088 139.146 88.0975 139.146 88.1918C139.146 88.3805 139.24 88.4748 139.804 88.6635V89.0409L136.607 88.7579V88.3805C138.394 88.0031 139.428 87.0597 139.522 85.8333C139.616 84.9843 139.052 84.3239 138.3 84.2295C137.453 84.1352 136.983 84.7013 136.513 86.2107C135.855 88.0031 135.102 89.0409 133.598 88.8522C132.187 88.7579 131.341 87.5314 131.435 86.1163C131.529 85.2673 131.905 84.5126 132.187 84.0409Z" fill="white"/>
<path d="M26.3943 105.927L26.5824 106.399C26.8645 106.871 27.0526 106.965 27.4287 106.776L32.6949 103.946C33.1651 103.663 33.1651 103.475 32.8829 103.003L32.6949 102.626L33.1651 102.343L34.8578 105.55C35.7981 107.248 35.7981 108.758 34.5756 109.418C33.5412 109.984 32.6008 109.324 31.9426 108.475H31.8485C32.2247 109.89 32.2247 110.833 31.1903 111.399C29.9678 112.06 28.5572 111.21 27.6168 109.607L25.8301 106.21L26.3943 105.927ZM28.181 109.324C28.8393 110.55 29.6856 110.644 30.532 110.173C31.4724 109.701 31.7545 108.758 31.0962 107.531L30.438 106.399L27.993 107.72C27.5228 108.003 27.5228 108.192 27.8049 108.663L28.181 109.324ZM31.4724 107.154C32.1306 108.475 32.977 108.663 33.8233 108.192C34.7637 107.72 34.9518 106.871 34.2935 105.739L34.1054 105.267C33.8233 104.795 33.6353 104.701 33.2591 104.89L31.0022 106.116L31.4724 107.154Z" fill="white"/>
<path d="M34.3879 118.758L34.67 119.135C34.9521 119.513 35.2342 119.607 35.6104 119.23L40.1242 115.267C40.5004 114.89 40.5004 114.701 40.1242 114.324L39.8421 113.947L40.2182 113.569L42.5692 116.305L42.193 116.683L41.9109 116.305C41.6288 115.928 41.3467 115.833 40.9705 116.211L36.4567 120.173C36.0806 120.55 36.0806 120.739 36.4567 121.117L36.7388 121.494L36.3627 121.871L34.0117 119.135L34.3879 118.758Z" fill="white"/>
<path d="M44.6375 124.135C46.048 122.154 48.493 121.588 50.1857 122.815C51.8784 124.041 52.0665 126.494 50.6559 128.475C49.2453 130.456 46.8003 131.022 45.1077 129.796C43.509 128.664 43.2269 126.116 44.6375 124.135ZM49.6215 127.72C50.844 126.022 51.3142 124.23 49.9976 123.286C48.6811 122.343 47.0825 123.381 45.954 124.984C44.7315 126.682 44.2613 128.475 45.5778 129.418C46.8944 130.362 48.399 129.324 49.6215 127.72Z" fill="white"/>
<path d="M56.8637 135.739C56.7697 135.551 56.5816 135.456 56.4875 135.456C56.2995 135.362 56.2054 135.456 55.8293 135.928L55.4531 135.739L56.5816 132.626L56.9577 132.815C56.7697 134.796 57.71 136.022 58.8385 136.494C59.6848 136.871 60.4371 136.588 60.7193 135.739C61.0014 134.985 60.7193 134.419 59.4027 133.381C57.8041 132.154 57.1458 131.211 57.616 129.89C58.0862 128.664 59.4968 128.192 60.7193 128.664C61.2835 128.947 61.8477 129.324 62.2239 129.89C62.3179 130.079 62.412 130.173 62.506 130.173C62.6941 130.268 62.7881 130.173 63.1643 129.702L63.5404 129.89L62.412 132.909L62.0358 132.72C62.2239 130.928 61.5656 129.607 60.4372 129.23C59.5908 128.947 58.8385 129.23 58.6504 129.89C58.2743 130.739 58.7445 131.211 59.967 132.249C61.4716 133.381 62.2239 134.419 61.6596 135.834C61.0954 137.154 59.6848 137.626 58.4623 137.06C57.8041 136.777 57.2399 136.305 56.8637 135.739Z" fill="white"/>
<path d="M69.6512 135.928C69.9333 133.475 71.9081 131.871 73.8829 132.154C74.5411 132.248 75.0113 132.531 75.4815 132.909C75.5756 133.003 75.7636 133.098 75.8577 133.098C76.0458 133.098 76.1398 133.003 76.3279 132.437L76.704 132.531L76.4219 135.928L75.9517 135.833C75.6696 133.758 74.7292 132.814 73.6948 132.626C72.1902 132.437 71.2498 133.947 71.0617 136.022C70.7796 138.003 71.3438 139.796 72.9425 139.984C74.259 140.173 75.1994 139.418 75.7636 137.626L76.4219 137.815C75.7636 139.89 74.4471 140.928 72.8485 140.739C70.6856 140.456 69.369 138.381 69.6512 135.928Z" fill="white"/>
<path d="M84.2289 140.267L84.6991 140.173C85.1693 140.079 85.3573 139.984 85.3573 139.513L84.7931 133.569C84.6991 133.097 84.511 133.003 84.0408 133.003L83.5706 133.097L83.4766 132.531L87.05 132.154L87.1441 132.72L86.6739 132.814C86.2037 132.909 86.0156 133.003 86.0156 133.475L86.5798 139.418C86.6739 139.89 86.8619 139.984 87.3321 139.984L87.8023 139.89L87.8964 140.456L84.3229 140.833L84.2289 140.267Z" fill="white"/>
<path d="M95.5134 138.475L95.9836 138.286C96.4537 138.097 96.6418 137.909 96.4537 137.437L94.573 131.777C94.3849 131.305 94.1968 131.211 93.7266 131.399L93.2564 131.588L93.0684 131.116L99.3689 128.947L100.497 131.871L100.027 132.06C99.1808 130.456 98.5226 129.89 96.9239 130.362L96.1716 130.645C95.7014 130.833 95.5134 131.022 95.7014 131.494L96.5478 133.947L97.112 133.758C98.2405 133.38 98.3345 132.72 97.9584 131.777L98.4285 131.588L99.651 135.267L99.1808 135.456C98.8047 134.513 98.3345 133.947 97.206 134.324L96.6418 134.513L97.5822 137.248C97.7703 137.72 97.9584 137.814 98.4285 137.626L99.3689 137.343C100.968 136.777 101.062 135.739 100.78 133.852L101.25 133.664L102.096 136.965L95.6074 139.135L95.5134 138.475Z" fill="white"/>
<path d="M107.268 127.154L109.713 130.928C110.278 131.871 110.654 131.966 111.406 131.494L111.5 131.4L111.782 131.871L109.055 133.664L108.773 133.192L108.961 133.098C109.619 132.626 109.713 132.343 109.055 131.4L106.14 126.871C105.67 126.777 105.294 126.871 104.729 127.249L104.447 126.777L106.422 125.551L113.381 128.192L111.218 124.607C110.654 123.664 110.278 123.569 109.525 124.041L109.431 124.135L109.149 123.664L111.876 121.871L112.158 122.343L111.97 122.437C111.312 122.909 111.218 123.192 111.876 124.135L115.356 129.607L114.886 129.89L107.268 127.154Z" fill="white"/>
<path d="M118.834 121.305C116.953 119.607 116.765 117.154 118.176 115.645C118.646 115.173 119.116 114.89 119.68 114.796C119.774 114.796 119.962 114.701 120.056 114.607C120.15 114.513 120.15 114.324 119.868 113.852L120.15 113.569L122.689 115.739L122.407 116.022C120.621 115.079 119.21 115.362 118.552 116.022C117.517 117.154 118.176 118.758 119.774 120.173C121.279 121.494 123.066 122.06 124.1 120.928C124.946 119.984 124.946 118.758 123.818 117.249L124.194 116.777C125.605 118.475 125.605 120.173 124.476 121.4C123.066 123.003 120.621 122.909 118.834 121.305Z" fill="white"/>
<path d="M130.402 112.532L130.59 112.154C130.872 111.683 130.872 111.494 130.402 111.211L125.135 108.381C124.665 108.098 124.477 108.286 124.289 108.758L124.101 109.135L123.631 108.852L126.828 102.909L129.649 104.23L129.461 104.607C127.769 103.947 126.828 104.041 126.076 105.55L125.7 106.211C125.418 106.683 125.418 106.871 125.888 107.154L128.145 108.381L128.427 107.815C128.991 106.777 128.615 106.211 127.675 105.739L127.863 105.362L131.248 107.154L131.06 107.532C130.119 107.06 129.461 106.966 128.803 108.003L128.521 108.569L131.06 109.89C131.53 110.173 131.718 109.984 131.906 109.513L132.376 108.664C133.223 107.154 132.564 106.4 131.06 105.173L131.248 104.796L134.069 106.588L130.778 112.626L130.402 112.532Z" fill="white"/>
<path d="M87.7287 79.5755C86.6578 79.5755 86.2754 78.8132 86.2754 78.051C86.2754 77.0601 86.8108 76.374 87.8817 76.374C88.1111 76.374 88.3406 76.374 88.5701 76.4503L88.4936 76.9838C88.2641 76.9076 88.0346 76.9076 87.8817 76.9076C87.2697 76.9076 86.9638 77.365 86.9638 77.9748C86.9638 78.6608 87.2697 79.0419 87.8817 79.0419C88.0346 79.0419 88.3406 78.9657 88.4936 78.8895L88.5701 79.423C88.3406 79.4993 88.0346 79.5755 87.7287 79.5755Z" fill="white"/>
<path d="M91.172 79.5758C90.1777 79.5758 89.7188 78.966 89.7188 77.9751C89.7188 76.9079 90.4072 76.2981 91.2485 76.2981C92.0899 76.2981 92.7018 76.8317 92.7018 77.8988C92.7018 78.8898 92.0134 79.5758 91.172 79.5758ZM91.172 76.8317C90.7131 76.8317 90.3307 77.2128 90.3307 77.8988C90.3307 78.5849 90.5601 78.966 91.172 78.966C91.5545 78.966 92.0134 78.6611 92.0134 77.8988C92.0134 77.2128 91.7075 76.8317 91.172 76.8317Z" fill="white"/>
<path d="M95.302 79.5758C94.3076 79.5758 94.0781 79.0422 94.0781 78.4324V76.3743H94.69V78.3562C94.69 78.7373 94.843 79.0422 95.3784 79.0422C95.8374 79.0422 96.0669 78.8135 96.0669 78.28V76.2981H96.6788V78.2037C96.6023 79.1184 96.1433 79.5758 95.302 79.5758Z" fill="white"/>
<path d="M100.043 79.4993L99.1249 77.8985C98.9719 77.6699 98.8954 77.4412 98.8189 77.2125C98.8189 77.5174 98.8189 77.9748 98.8189 78.3559V79.4993H98.207V76.374H98.9719L99.8898 77.8985C100.043 78.1272 100.196 78.4321 100.272 78.6608C100.272 78.3559 100.272 77.7461 100.272 77.365V76.374H100.884V79.4993H100.043Z" fill="white"/>
<path d="M103.487 76.9076V79.5755H102.875V76.9076H102.033V76.374H104.251V76.9076H103.487Z" fill="white"/>
<path d="M106.928 79.4993L106.087 78.2034V79.4993H105.475V76.374C105.704 76.374 106.01 76.374 106.392 76.374C107.081 76.374 107.54 76.6027 107.54 77.2887C107.54 77.7461 107.234 78.1272 106.698 78.2034C106.775 78.3559 106.851 78.4321 106.928 78.5846L107.693 79.6517H106.928V79.4993ZM106.24 76.8314C106.163 76.8314 106.087 76.8314 106.01 76.8314V77.7461C106.087 77.7461 106.163 77.7461 106.24 77.7461C106.622 77.7461 106.851 77.5936 106.851 77.2887C106.851 76.9838 106.622 76.8314 106.24 76.8314Z" fill="white"/>
<path d="M109.911 78.3562V79.4996H109.299V78.3562L108.305 76.2981H108.993L109.452 77.2128C109.529 77.3653 109.605 77.5939 109.681 77.7464C109.758 77.5939 109.834 77.3653 109.911 77.1366L110.293 76.2981H110.905L109.911 78.3562Z" fill="white"/>
<path d="M90.9429 64.6349C90.8665 64.6349 90.79 64.6349 90.7135 64.6349V65.7783H90.1016V62.6531C90.331 62.6531 90.637 62.6531 90.9429 62.6531C91.7078 62.6531 92.1668 63.0342 92.1668 63.644C92.1668 64.1776 91.7078 64.6349 90.9429 64.6349ZM90.9429 63.0342C90.8665 63.0342 90.79 63.0342 90.7135 63.0342V64.1014C90.79 64.1014 90.8665 64.1014 90.8665 64.1014C91.2489 64.1014 91.4784 63.8727 91.4784 63.5678C91.5549 63.2629 91.3254 63.0342 90.9429 63.0342Z" fill="white"/>
<path d="M95.1502 65.7026L94.9207 65.0928H93.6969L93.4674 65.7026H92.8555L93.9263 62.5774H94.6147L95.7621 65.7026H95.1502ZM94.4617 63.797C94.3853 63.6445 94.3853 63.4921 94.3088 63.2634C94.3088 63.4159 94.2323 63.6445 94.1558 63.797L93.8498 64.6355H94.6912L94.4617 63.797Z" fill="white"/>
<path d="M97.8263 63.111V65.7789H97.2144V63.111H96.373V62.5774H98.6677V63.111H97.8263Z" fill="white"/>
<path d="M101.42 65.7026L100.503 64.4068V65.7026H99.8906V62.5774C100.12 62.5774 100.426 62.5774 100.809 62.5774C101.497 62.5774 101.956 62.8061 101.956 63.4921C101.956 63.9495 101.65 64.3306 101.114 64.4068C101.191 64.5593 101.267 64.6355 101.344 64.7879L102.109 65.8551H101.42V65.7026ZM100.732 63.0347C100.656 63.0347 100.579 63.0347 100.503 63.0347V63.9494C100.579 63.9494 100.656 63.9494 100.732 63.9494C101.114 63.9494 101.344 63.797 101.344 63.4921C101.344 63.1872 101.191 63.0347 100.732 63.0347Z" fill="white"/>
<path d="M103.486 65.7026V62.5774H104.098V65.7026H103.486Z" fill="white"/>
<path d="M106.928 65.7784C105.934 65.7784 105.475 65.1686 105.475 64.1777C105.475 63.1105 106.163 62.5007 107.004 62.5007C107.846 62.5007 108.458 63.0343 108.458 64.1015C108.458 65.1686 107.769 65.7784 106.928 65.7784ZM107.004 63.1105C106.545 63.1105 106.163 63.4917 106.163 64.1777C106.163 64.8637 106.392 65.2449 107.004 65.2449C107.387 65.2449 107.846 64.9399 107.846 64.1777C107.846 63.4917 107.54 63.1105 107.004 63.1105Z" fill="white"/>
<path d="M110.83 63.111V65.7789H110.218V63.111H109.377V62.5774H111.595V63.111H110.83Z" fill="white"/>
<path d="M112.666 65.7026V62.5774H113.278V65.7026H112.666Z" fill="white"/>
<path d="M115.953 65.7789C114.882 65.7789 114.5 65.0166 114.5 64.2544C114.5 63.2634 115.035 62.5774 116.106 62.5774C116.336 62.5774 116.565 62.5774 116.795 62.6536L116.718 63.1872C116.489 63.111 116.259 63.111 116.106 63.111C115.494 63.111 115.188 63.5683 115.188 64.1781C115.188 64.8642 115.494 65.2453 116.106 65.2453C116.259 65.2453 116.565 65.1691 116.718 65.0928L116.795 65.6264C116.565 65.7026 116.259 65.7789 115.953 65.7789Z" fill="white"/>
<path d="M55.374 79.5755C55.1445 79.5755 54.915 79.5755 54.762 79.4993V78.9657C54.915 79.0419 55.221 79.0419 55.4504 79.0419C55.7564 79.0419 55.9859 78.8895 55.9859 78.6608C55.9859 78.051 54.6855 78.3559 54.6855 77.2887C54.6855 76.7552 55.1445 76.374 55.9094 76.374C56.0624 76.374 56.2918 76.374 56.5213 76.4503V76.9838C56.3683 76.9076 56.1388 76.9076 55.9859 76.9076C55.6034 76.9076 55.4504 77.0601 55.4504 77.2887C55.4504 77.8223 56.7508 77.6699 56.7508 78.6608C56.6743 79.1181 56.2153 79.5755 55.374 79.5755Z" fill="white"/>
<path d="M58.0508 79.4993V76.374H59.7335V76.9076H58.5862V77.6699H59.6571V78.1272H58.5862V78.9657H59.7335V79.4993H58.0508Z" fill="white"/>
<path d="M62.7915 79.4993L61.8736 78.2034V79.4993H61.2617V76.374C61.4912 76.374 61.7971 76.374 62.1796 76.374C62.868 76.374 63.3269 76.6027 63.3269 77.2887C63.3269 77.7461 63.021 78.1272 62.4856 78.2034C62.562 78.2797 62.6385 78.4321 62.715 78.5083L63.4799 79.5755H62.7915V79.4993ZM62.1031 76.8314C62.0266 76.8314 61.9501 76.8314 61.8736 76.8314V77.7461C61.9501 77.7461 62.0266 77.7461 62.1031 77.7461C62.4856 77.7461 62.715 77.5936 62.715 77.2887C62.715 76.9838 62.4856 76.8314 62.1031 76.8314Z" fill="white"/>
<path d="M66.2358 79.4996H65.5474L64.4766 76.3743H65.165L65.7769 78.2037C65.8534 78.3562 65.9299 78.5849 65.9299 78.8135C66.0064 78.5849 66.0064 78.4324 66.0828 78.1275L66.6948 76.2981H67.3067L66.2358 79.4996Z" fill="white"/>
<path d="M68.5293 79.4993V76.374H69.1412V79.4993H68.5293Z" fill="white"/>
<path d="M72.049 79.5755C70.9782 79.5755 70.5957 78.8132 70.5957 78.051C70.5957 77.0601 71.1311 76.374 72.202 76.374C72.4315 76.374 72.6609 76.374 72.8904 76.4503L72.8139 76.9838C72.5079 76.9076 72.355 76.9076 72.1255 76.9076C71.5136 76.9076 71.2076 77.365 71.2076 77.9748C71.2076 78.6608 71.5136 79.0419 72.1255 79.0419C72.2785 79.0419 72.5844 78.9657 72.7374 78.8895L72.8139 79.423C72.5844 79.4993 72.355 79.5755 72.049 79.5755Z" fill="white"/>
<path d="M74.1914 79.4993V76.374H75.8742V76.9076H74.7268V77.6699H75.7977V78.1272H74.7268V78.9657H75.8742V79.4993H74.1914Z" fill="white"/>
<path d="M90.4829 70.3523L89.565 69.0565V70.3523H88.9531V67.2271C89.1826 67.2271 89.4885 67.2271 89.871 67.2271C90.5594 67.2271 91.0183 67.4557 91.0183 68.1418C91.0183 68.5991 90.7124 68.9802 90.2534 69.0565C90.3299 69.2089 90.4064 69.2851 90.4829 69.3614L91.2478 70.4285H90.4829V70.3523ZM89.7945 67.6844C89.718 67.6844 89.6415 67.6844 89.565 67.6844V68.5991C89.6415 68.5991 89.718 68.5991 89.7945 68.5991C90.177 68.5991 90.4064 68.4467 90.4064 68.1418C90.3299 67.8369 90.177 67.6844 89.7945 67.6844Z" fill="white"/>
<path d="M92.5488 70.3523V67.2271H94.2316V67.7606H93.0843V68.5229H94.1551V69.0565H93.0843V69.8949H94.2316V70.4285H92.5488V70.3523Z" fill="white"/>
<path d="M96.526 70.3524C96.2965 70.3524 96.067 70.3524 95.9141 70.2761L95.9906 69.7425C96.1435 69.8188 96.4495 69.8188 96.679 69.8188C96.9849 69.8188 97.2144 69.6663 97.2144 69.4376C97.2144 68.8278 95.9141 69.1327 95.9141 68.0656C95.9141 67.532 96.373 67.1509 97.1379 67.1509C97.2909 67.1509 97.5203 67.1509 97.6733 67.2271V67.7607C97.5203 67.6845 97.2909 67.6845 97.1379 67.6845C96.7554 67.6845 96.6025 67.8369 96.6025 68.0656C96.6025 68.5992 97.9028 68.4467 97.9028 69.4376C97.7498 69.9712 97.2909 70.3524 96.526 70.3524Z" fill="white"/>
<path d="M100.045 69.2089C99.968 69.2089 99.8915 69.2089 99.815 69.2089V70.3523H99.2031V67.2271C99.4326 67.2271 99.7386 67.2271 100.045 67.2271C100.809 67.2271 101.268 67.6082 101.268 68.218C101.268 68.7516 100.809 69.2089 100.045 69.2089ZM100.045 67.6844C99.968 67.6844 99.8915 67.6844 99.815 67.6844V68.7516C99.8915 68.7516 99.968 68.7516 99.968 68.7516C100.35 68.7516 100.58 68.5229 100.58 68.218C100.656 67.8369 100.427 67.6844 100.045 67.6844Z" fill="white"/>
<path d="M102.492 70.3523V67.2271H104.251V67.7606H103.104V68.5229H104.175V69.0565H103.104V69.8949H104.251V70.4285H102.492V70.3523Z" fill="white"/>
<path d="M107.004 70.3524C105.933 70.3524 105.551 69.5901 105.551 68.8278C105.551 67.8369 106.086 67.1509 107.157 67.1509C107.387 67.1509 107.616 67.1509 107.845 67.2271L107.692 67.7607C107.463 67.6845 107.234 67.6845 107.081 67.6845C106.469 67.6845 106.163 68.1418 106.163 68.7516C106.163 69.4376 106.469 69.8188 107.081 69.8188C107.31 69.8188 107.54 69.7425 107.692 69.6663L107.769 70.1999C107.616 70.2761 107.31 70.3524 107.004 70.3524Z" fill="white"/>
<path d="M110.371 67.6845V70.3524H109.759V67.6845H108.918V67.1509H111.136V67.6845H110.371Z" fill="white"/>
<path d="M53.4628 74.9253C53.1568 74.9253 52.8509 74.9253 52.5449 74.9253V71.8C52.7744 71.8 53.1568 71.8 53.5393 71.8C54.5336 71.8 55.1456 72.2574 55.1456 73.3246C55.2221 74.3917 54.5336 74.9253 53.4628 74.9253ZM53.6158 72.2574C53.4628 72.2574 53.3098 72.2574 53.2333 72.2574V74.3917C53.3098 74.3917 53.4628 74.3917 53.5393 74.3917C54.1512 74.3917 54.5336 74.0868 54.5336 73.3246C54.6101 72.6385 54.3042 72.2574 53.6158 72.2574Z" fill="white"/>
<path d="M57.8977 75.0015C56.9033 75.0015 56.6738 74.4679 56.6738 73.8581V71.8H57.2857V73.8581C57.2857 74.2393 57.4387 74.5442 57.9742 74.5442C58.4331 74.5442 58.6626 74.3155 58.6626 73.7819V71.8H59.2745V73.7057C59.198 74.5442 58.6626 75.0015 57.8977 75.0015Z" fill="white"/>
<path d="M61.7987 72.2577V74.9256H61.1868V72.2577H60.4219V71.7241H62.6401V72.2577H61.7987Z" fill="white"/>
<path d="M65.243 73.7822V74.9256H64.6311V73.7822L63.6367 71.7241H64.3251L64.7076 72.6388C64.7841 72.7913 64.8606 73.02 64.937 73.1724C65.0135 73.02 65.09 72.7913 65.1665 72.5626L65.549 71.7241H66.1609L65.243 73.7822Z" fill="white"/>
<path d="M89.4119 74.9253L89.1824 74.3155H87.9586L87.7291 74.9253H87.1172L88.188 71.8H88.8764L90.0238 74.9253H89.4119ZM88.7235 72.9434C88.647 72.791 88.647 72.6385 88.5705 72.4099C88.5705 72.5623 88.494 72.791 88.4175 72.9434L88.1115 73.7819H89.0294L88.7235 72.9434Z" fill="white"/>
<path d="M91.248 74.9253V71.8H91.86V74.3917H92.8543V74.9253H91.248Z" fill="white"/>
<path d="M97.29 74.9256H96.5251L96.0662 73.1724C95.9897 72.9437 95.9897 72.7151 95.9132 72.4864C95.9132 72.7151 95.8367 72.9437 95.7602 73.0962L95.3013 74.8494H94.6129L93.7715 71.7241H94.4599L94.9188 73.4773C94.9953 73.706 94.9953 73.9347 95.0718 74.0871C95.0718 73.8584 95.1483 73.6298 95.2248 73.4773L95.6837 71.7241H96.2956L96.7546 73.4773C96.8311 73.6298 96.8311 73.8584 96.9075 74.0871C96.9075 73.8584 96.984 73.706 97.0605 73.4773L97.5195 71.7241H98.1314L97.29 74.9256Z" fill="white"/>
<path d="M101.115 74.9256L100.962 74.2396H99.7379L99.5084 74.8494H98.8965L99.9673 71.7241H100.656L101.803 74.8494H101.115V74.9256ZM100.503 72.9437C100.426 72.7913 100.426 72.6388 100.35 72.4101C100.273 72.5626 100.273 72.7913 100.197 72.9437L99.8908 73.7822H100.809L100.503 72.9437Z" fill="white"/>
<path d="M104.022 73.7822V74.9256H103.41V73.7822L102.416 71.7241H103.104L103.487 72.6388C103.563 72.7913 103.64 73.02 103.716 73.1724C103.793 73.02 103.869 72.7913 103.946 72.5626L104.328 71.7241H104.94L104.022 73.7822Z" fill="white"/>
<path d="M106.622 75.0015C106.392 75.0015 106.163 75.0015 106.01 74.9253L106.086 74.3917C106.239 74.4679 106.545 74.4679 106.775 74.4679C107.081 74.4679 107.31 74.3155 107.31 74.0868C107.31 73.477 106.01 73.7819 106.01 72.7148C106.01 72.1812 106.469 71.8 107.234 71.8C107.387 71.8 107.616 71.8001 107.846 71.8763V72.4099C107.693 72.3336 107.463 72.3336 107.31 72.3336C106.928 72.3336 106.775 72.4861 106.775 72.7148C106.775 73.2483 108.075 73.0959 108.075 74.0868C107.922 74.5442 107.387 75.0015 106.622 75.0015Z" fill="white"/>
<path d="M48.0317 61.1294V59.7573H46.6549V61.1294H46.043V58.0042H46.6549V59.3H48.0317V58.0042H48.6436V61.1294H48.0317Z" fill="white"/>
<path d="M50.3242 61.1289V58.0037H52.007V58.5372H50.8596V59.2995H51.9305V59.7569H50.8596V60.5953H52.007V61.1289H50.3242Z" fill="white"/>
<path d="M54.9924 61.1289L54.0745 59.8331V61.1289H53.5391V58.0037C53.7685 58.0037 54.0745 58.0037 54.4569 58.0037C55.1453 58.0037 55.6043 58.2323 55.6043 58.9184C55.6043 59.3757 55.2983 59.7568 54.7629 59.8331C54.8394 59.9855 54.9159 60.0617 54.9924 60.2142L55.7573 61.2814H54.9924V61.1289ZM54.3804 58.461C54.304 58.461 54.2275 58.461 54.151 58.461V59.3757C54.2275 59.3757 54.304 59.3757 54.3804 59.3757C54.7629 59.3757 54.9924 59.2233 54.9924 58.9184C54.9159 58.6135 54.7629 58.461 54.3804 58.461Z" fill="white"/>
<path d="M58.2033 61.2049C57.2089 61.2049 56.75 60.5951 56.75 59.6042C56.75 58.5371 57.4384 57.9272 58.2798 57.9272C59.1212 57.9272 59.7331 58.4608 59.7331 59.528C59.7331 60.5189 59.0447 61.2049 58.2033 61.2049ZM58.2798 58.4608C57.8209 58.4608 57.4384 58.842 57.4384 59.528C57.4384 60.214 57.6679 60.5951 58.2798 60.5951C58.6622 60.5951 59.1212 60.2902 59.1212 59.528C59.1212 58.842 58.8152 58.4608 58.2798 58.4608Z" fill="white"/>
<path d="M61.1113 61.1289V58.0037H61.7232V61.1289H61.1113Z" fill="white"/>
<path d="M64.6291 61.2051C63.5582 61.2051 63.1758 60.4429 63.1758 59.6806C63.1758 58.6897 63.7112 58.0037 64.7821 58.0037C65.0115 58.0037 65.241 58.0037 65.4705 58.0799L65.3175 58.6135C65.088 58.5372 64.8586 58.5372 64.7056 58.5372C64.0937 58.5372 63.7877 58.9946 63.7877 59.6044C63.7877 60.2904 64.0937 60.6716 64.7056 60.6716C64.8586 60.6716 65.1645 60.5953 65.3175 60.5191L65.394 61.0527C65.1645 61.1289 64.935 61.2051 64.6291 61.2051Z" fill="white"/>
<path d="M66.4638 102.519C66.2343 102.519 66.0049 102.519 65.8519 102.443V101.909C66.0049 101.986 66.3108 101.986 66.5403 101.986C66.8462 101.986 67.0757 101.833 67.0757 101.604C67.0757 100.995 65.7754 101.299 65.7754 100.232C65.7754 99.6988 66.2343 99.3176 66.9992 99.3176C67.1522 99.3176 67.3817 99.3176 67.5346 99.3939V99.9274C67.3052 99.775 67.0757 99.775 66.9227 99.775C66.5403 99.775 66.3873 99.9274 66.3873 100.156C66.3873 100.69 67.6876 100.537 67.6876 101.528C67.6876 102.062 67.2287 102.519 66.4638 102.519Z" fill="white"/>
<path d="M69.1445 102.443V99.3176H70.8273V99.8512H69.68V100.613H70.7508V101.071H69.68V101.909H70.8273V102.443H69.1445Z" fill="white"/>
<path d="M72.2773 102.443V99.3176H72.8893V101.909H73.8836V102.443H72.2773Z" fill="white"/>
<path d="M75.7975 99.8512V100.69H76.7918V101.223H75.7975V102.519H75.1855V99.3938H76.8683V99.9274H75.7975V99.8512Z" fill="white"/>
<path d="M78.3203 102.443V99.3176H78.9322V101.909H79.9266V102.443H78.3203Z" fill="white"/>
<path d="M81.2285 102.443V99.3176H82.9113V99.8512H81.8404V100.613H82.9113V101.071H81.8404V101.909H82.9878V102.443H81.2285Z" fill="white"/>
<path d="M84.9755 102.519C84.746 102.519 84.5166 102.519 84.3636 102.443V101.909C84.5166 101.986 84.8225 101.986 85.052 101.986C85.358 101.986 85.5874 101.833 85.5874 101.604C85.5874 100.995 84.2871 101.299 84.2871 100.232C84.2871 99.6988 84.7461 99.3176 85.5109 99.3176C85.6639 99.3176 85.8934 99.3176 86.0464 99.3939V99.9274C85.8169 99.775 85.6639 99.775 85.4345 99.775C85.052 99.775 84.899 99.9274 84.899 100.156C84.899 100.69 86.1994 100.537 86.1994 101.528C86.2758 102.062 85.7404 102.519 84.9755 102.519Z" fill="white"/>
<path d="M88.1881 102.519C87.9586 102.519 87.7292 102.519 87.5762 102.443L87.6527 101.909C87.8056 101.986 88.1116 101.986 88.3411 101.986C88.647 101.986 88.8765 101.833 88.8765 101.604C88.8765 100.995 87.5762 101.299 87.5762 100.232C87.5762 99.6988 88.0351 99.3176 88.8 99.3176C88.953 99.3176 89.1825 99.3176 89.3354 99.3939V99.9274C89.0295 99.775 88.8 99.775 88.5705 99.775C88.1881 99.775 88.0351 99.9274 88.0351 100.156C88.0351 100.69 89.3354 100.537 89.3354 101.528C89.4119 102.062 88.953 102.519 88.1881 102.519Z" fill="white"/>
<path d="M57.9745 84.1487C57.745 84.1487 57.4391 84.1487 57.0566 84.1487V81.0234C57.3626 81.0234 57.745 81.0234 58.1275 81.0234C58.8159 81.0234 59.1984 81.3283 59.1984 81.7857C59.1984 82.0906 58.9689 82.3955 58.6629 82.4717C59.0454 82.5479 59.1984 82.8528 59.1984 83.1577C59.2748 83.6151 58.8924 84.1487 57.9745 84.1487ZM58.051 81.4046C57.898 81.4046 57.8215 81.4046 57.6686 81.4046V82.243C57.745 82.243 57.8215 82.243 57.898 82.243C58.2805 82.243 58.5099 82.0906 58.5099 81.7857C58.5099 81.557 58.4335 81.4046 58.051 81.4046ZM57.898 82.7004C57.8215 82.7004 57.6686 82.7004 57.5921 82.7004V83.6151C57.6686 83.6151 57.8215 83.6151 57.898 83.6151C58.2805 83.6151 58.5099 83.4626 58.5099 83.1577C58.5864 82.8528 58.357 82.7004 57.898 82.7004Z" fill="white"/>
<path d="M62.1821 84.0725L61.2643 82.7767V84.0725H60.6523V80.9473C60.8818 80.9473 61.1878 80.9473 61.5702 80.9473C62.2586 80.9473 62.7176 81.1759 62.7176 81.862C62.7176 82.3193 62.4116 82.7004 61.8762 82.7767C61.9527 82.8529 62.0292 83.0053 62.1056 83.1578L62.8705 84.225H62.1821V84.0725ZM61.5702 81.4046C61.4937 81.4046 61.4172 81.4046 61.3408 81.4046V82.3193C61.4172 82.3193 61.4937 82.3193 61.5702 82.3193C61.9527 82.3193 62.1821 82.1669 62.1821 81.862C62.1056 81.5571 61.9527 81.4046 61.5702 81.4046Z" fill="white"/>
<path d="M66.1599 84.0725L65.9305 83.4627H64.7066L64.4772 84.0725H63.8652L64.9361 80.9473H65.7775L66.9248 84.0725H66.1599ZM65.548 82.1669C65.4715 82.0144 65.4715 81.862 65.395 81.6333C65.395 81.7857 65.3185 82.0144 65.242 82.1669L64.9361 83.0054H65.7775L65.548 82.1669Z" fill="white"/>
<path d="M69.2964 84.0726H68.608L67.5371 80.9473H68.2255L68.8374 82.7767C68.9139 82.9292 68.9904 83.1579 68.9904 83.3865C69.0669 83.1579 69.0669 83.0054 69.1434 82.7005L69.7553 80.8711H70.3672L69.2964 84.0726Z" fill="white"/>
<path d="M71.666 84.0725V80.9473H73.3488V81.4808H72.2014V82.2431H73.2723V82.7767H72.2014V83.6152H73.3488V84.1487H71.666V84.0725Z" fill="white"/>
<path d="M85.817 84.1487C85.5875 84.1487 85.3581 84.1487 85.2051 84.0725L85.2816 83.5389C85.4345 83.6152 85.7405 83.6152 85.97 83.6152C86.2759 83.6152 86.5054 83.4627 86.5054 83.234C86.5054 82.6242 85.2051 82.9291 85.2051 81.862C85.2051 81.3284 85.664 80.9473 86.4289 80.9473C86.5819 80.9473 86.8114 80.9473 87.0408 81.0235L86.8878 81.4808C86.7349 81.4046 86.5054 81.4046 86.3524 81.4046C85.97 81.4046 85.817 81.5571 85.817 81.7857C85.817 82.3193 87.1173 82.1669 87.1173 83.1578C87.1173 83.6914 86.6584 84.1487 85.817 84.1487Z" fill="white"/>
<path d="M88.5703 84.0725V80.9473H90.2531V81.4808H89.1822V82.2431H90.2531V82.7767H89.1822V83.6152H90.2531V84.1487H88.5703V84.0725Z" fill="white"/>
<path d="M94.7669 84.0725L94.5375 82.5479C94.461 82.243 94.461 82.0144 94.461 81.7857C94.3845 82.0144 94.3845 82.243 94.308 82.4717L93.7726 84.0725H93.1607L92.7017 82.6242C92.6252 82.3955 92.5487 82.0906 92.4722 81.8619C92.4722 82.1668 92.3958 82.3955 92.3958 82.7004L92.2428 84.1487H91.6309L92.0898 81.0234H92.7782L93.3136 82.6242C93.3901 82.8528 93.4666 83.0815 93.4666 83.3102C93.5431 83.0815 93.5431 82.8528 93.6196 82.6242L94.155 81.0234H94.8434L95.3024 84.1487H94.7669V84.0725Z" fill="white"/>
<path d="M97.5972 83.0053C97.5208 83.0053 97.4443 83.0053 97.3678 83.0053V84.1487H96.7559V81.0234C96.9853 81.0234 97.2913 81.0234 97.5972 81.0234C98.3621 81.0234 98.8211 81.4046 98.8211 82.0144C98.8211 82.5479 98.3621 83.0053 97.5972 83.0053ZM97.5972 81.4046C97.5208 81.4046 97.4443 81.4046 97.3678 81.4046V82.4717C97.4443 82.4717 97.5208 82.4717 97.5208 82.4717C97.9032 82.4717 98.1327 82.243 98.1327 81.9381C98.1327 81.6332 97.9797 81.4046 97.5972 81.4046Z" fill="white"/>
<path d="M100.045 84.0725V80.9473H101.728V81.4808H100.58V82.2431H101.728V82.7767H100.657V83.6152H101.804V84.1487H100.045V84.0725Z" fill="white"/>
<path d="M104.862 84.0725L103.944 82.7767V84.0725H103.332V80.9473C103.561 80.9473 103.867 80.9473 104.25 80.9473C104.938 80.9473 105.397 81.1759 105.397 81.862C105.397 82.3193 105.091 82.7004 104.556 82.7767C104.632 82.8529 104.709 83.0053 104.785 83.1578L105.55 84.225H104.862V84.0725ZM104.173 81.4046C104.097 81.4046 104.02 81.4046 103.944 81.4046V82.3193C104.02 82.3193 104.097 82.3193 104.173 82.3193C104.556 82.3193 104.785 82.1669 104.785 81.862C104.785 81.5571 104.556 81.4046 104.173 81.4046Z" fill="white"/>
<path d="M60.7287 88.7227L59.8873 87.4268V88.7227H59.2754V85.5974C59.5049 85.5974 59.8108 85.5974 60.1933 85.5974C60.8817 85.5974 61.3406 85.8261 61.3406 86.5121C61.3406 86.9695 61.0346 87.3506 60.5757 87.3506C60.6522 87.503 60.7287 87.5793 60.8052 87.7317L61.5701 88.7989H60.7287V88.7227ZM60.0403 86.0548C59.9638 86.0548 59.8873 86.0548 59.8108 86.0548V86.9695C59.8873 86.9695 59.9638 86.9695 60.0403 86.9695C60.4227 86.9695 60.6522 86.817 60.6522 86.5121C60.6522 86.2072 60.4227 86.0548 60.0403 86.0548Z" fill="white"/>
<path d="M62.7949 88.7227V85.5974H64.4777V86.0548H63.3303V86.817H64.4012V87.2744H63.3303V88.1128H64.4777V88.6464H62.7949V88.7227Z" fill="white"/>
<path d="M67.9939 88.7227L67.7644 88.1128H66.5406L66.3111 88.7227H65.6992L66.7701 85.5974H67.4585L68.6058 88.7227H67.9939ZM67.3055 86.7408C67.229 86.5883 67.229 86.4359 67.1525 86.2072C67.076 86.3597 67.076 86.5883 66.9995 86.7408L66.6936 87.5793H67.6115L67.3055 86.7408Z" fill="white"/>
<path d="M70.6715 88.7227C70.3655 88.7227 70.0595 88.7227 69.8301 88.7227V85.5974C70.0595 85.5974 70.442 85.5974 70.8244 85.5974C71.8188 85.5974 72.4307 86.0548 72.4307 87.1219C72.4307 88.1891 71.7423 88.7227 70.6715 88.7227ZM70.8244 86.0548C70.6715 86.0548 70.5185 86.0548 70.442 86.0548V88.1891C70.5185 88.1891 70.6715 88.1891 70.748 88.1891C71.3599 88.1891 71.7423 87.8842 71.7423 87.1219C71.7423 86.4359 71.5128 86.0548 70.8244 86.0548Z" fill="white"/>
<path d="M74.8797 87.5793V88.7227H74.2678V87.5793L73.2734 85.5212H73.9618L74.3443 86.4359C74.4208 86.5884 74.4973 86.8171 74.5738 86.9695C74.6502 86.8171 74.7267 86.5884 74.8032 86.3597L75.1857 85.5212H75.7976L74.8797 87.5793Z" fill="white"/>
<path d="M84.898 88.7227C84.5921 88.7227 84.2861 88.7227 84.0566 88.7227V85.5974C84.2861 85.5974 84.6686 85.5974 85.051 85.5974C86.0454 85.5974 86.6573 86.0548 86.6573 87.1219C86.6573 88.1891 85.9689 88.7227 84.898 88.7227ZM85.051 86.0548C84.898 86.0548 84.745 86.0548 84.6686 86.0548V88.1891C84.745 88.1891 84.898 88.1891 84.9745 88.1891C85.5864 88.1891 85.9689 87.8842 85.9689 87.1219C86.0454 86.4359 85.7394 86.0548 85.051 86.0548Z" fill="white"/>
<path d="M88.0352 88.7227V85.5974H89.7944V86.0548H88.6471V86.817H89.7179V87.2744H88.6471V88.1128H89.7944V88.6464H88.0352V88.7227Z" fill="white"/>
<path d="M91.86 86.0548V86.8932H92.8543V87.4268H91.86V88.7227H91.248V85.5974H92.9308V86.0548H91.86Z" fill="white"/>
<path d="M94.3086 88.7227V85.5974H96.0678V86.0548H94.9205V86.817H95.9914V87.2744H94.9205V88.1128H96.0678V88.6464H94.3086V88.7227Z" fill="white"/>
<path d="M99.3556 88.7227L98.4377 87.1219C98.2847 86.8932 98.2083 86.6646 98.0553 86.4359C98.0553 86.7408 98.0553 87.1981 98.0553 87.5793V88.7227H97.4434V85.5974H98.2083L99.1261 87.1219C99.2791 87.3506 99.4321 87.6555 99.5086 87.8842C99.5086 87.5793 99.5086 87.0457 99.5086 86.5883V85.5974H100.12V88.7227H99.3556Z" fill="white"/>
<path d="M102.568 88.7227C102.262 88.7227 101.956 88.7227 101.727 88.7227V85.5974C101.956 85.5974 102.338 85.5974 102.721 85.5974C103.715 85.5974 104.327 86.0548 104.327 87.1219C104.327 88.1891 103.639 88.7227 102.568 88.7227ZM102.644 86.0548C102.491 86.0548 102.338 86.0548 102.262 86.0548V88.1891C102.338 88.1891 102.491 88.1891 102.568 88.1891C103.18 88.1891 103.562 87.8842 103.562 87.1219C103.639 86.4359 103.409 86.0548 102.644 86.0548Z" fill="white"/>
<path d="M62.3342 93.3719C61.2633 93.3719 60.8809 92.6096 60.8809 91.8474C60.8809 90.8564 61.4163 90.1704 62.4871 90.1704C62.7166 90.1704 62.9461 90.1704 63.1755 90.2466L63.0991 90.7802C62.8696 90.704 62.7166 90.704 62.4871 90.704C61.8752 90.704 61.6458 91.1613 61.6458 91.7711C61.6458 92.4572 61.9517 92.8383 62.5636 92.8383C62.7931 92.8383 63.0226 92.7621 63.1755 92.6859L63.252 93.2194C62.9461 93.2957 62.6401 93.3719 62.3342 93.3719Z" fill="white"/>
<path d="M65.7775 93.3722C64.7832 93.3722 64.3242 92.7624 64.3242 91.7714C64.3242 90.7043 65.0126 90.0945 65.854 90.0945C66.6954 90.0945 67.3073 90.6281 67.3073 91.6952C67.3073 92.6861 66.6189 93.3722 65.7775 93.3722ZM65.854 90.6281C65.3951 90.6281 65.0126 91.0092 65.0126 91.6952C65.0126 92.3812 65.2421 92.7624 65.854 92.7624C66.2365 92.7624 66.6954 92.4575 66.6954 91.6952C66.6954 91.0092 66.3894 90.6281 65.854 90.6281Z" fill="white"/>
<path d="M71.6654 93.2956L71.4359 91.7711C71.3594 91.4662 71.3594 91.2375 71.3594 91.0088C71.2829 91.2375 71.2829 91.39 71.2064 91.6949L70.671 93.2956H70.0591L69.6001 91.8473C69.5237 91.6186 69.4472 91.3137 69.3707 91.0851C69.3707 91.39 69.2942 91.6186 69.2942 91.9235L69.1412 93.3718H68.5293L68.9882 90.2466H69.6766L70.2121 91.8473C70.2886 92.076 70.365 92.3047 70.365 92.5334C70.4415 92.3047 70.4415 92.076 70.518 91.8473L71.0534 90.2466H71.7419L72.2008 93.3718H71.6654V93.2956Z" fill="white"/>
<path d="M76.7142 93.2956L76.4847 91.7711C76.4082 91.4662 76.4082 91.2375 76.4082 91.0088C76.3317 91.2375 76.3317 91.39 76.2553 91.6949L75.7198 93.2956H75.1079L74.649 91.8473C74.5725 91.6186 74.496 91.3137 74.4195 91.0851C74.4195 91.39 74.343 91.6186 74.343 91.9235L74.19 93.3718H73.5781L74.0371 90.2466H74.7255L75.2609 91.8473C75.3374 92.076 75.4139 92.3047 75.4139 92.5334C75.4904 92.3047 75.4904 92.076 75.5669 91.8473L76.1023 90.2466H76.7907L77.2496 93.3718H76.7142V93.2956Z" fill="white"/>
<path d="M78.7031 93.2957V90.1704H79.315V93.2957H78.7031Z" fill="white"/>
<path d="M81.9924 90.6281V93.2959H81.3804V90.6281H80.5391V90.0945H82.7572V90.6281H81.9924Z" fill="white"/>
<path d="M86.9642 93.2956L86.7347 91.7711C86.6582 91.4662 86.6582 91.2375 86.6582 91.0088C86.5818 91.2375 86.5817 91.39 86.5053 91.6949L85.9698 93.2956H85.3579L84.899 91.8473C84.8225 91.6186 84.746 91.3137 84.6695 91.0851C84.6695 91.39 84.593 91.6186 84.593 91.9235L84.44 93.3718H83.8281L84.2871 90.2466H84.9755L85.5109 91.8473C85.5874 92.076 85.6639 92.3047 85.6639 92.5334C85.7404 92.3047 85.7404 92.076 85.8169 91.8473L86.3523 90.2466H87.0407L87.4996 93.3718H86.9642V93.2956Z" fill="white"/>
<path d="M88.877 93.2957V90.1704H90.6362V90.6278H89.4889V91.39H90.5597V91.8474H89.4889V92.6859H90.6362V93.2194H88.877V93.2957Z" fill="white"/>
<path d="M93.9256 93.2957L93.0077 91.6949C92.8547 91.4662 92.7782 91.2376 92.7018 91.0089C92.7018 91.3138 92.7018 91.7711 92.7018 92.1523V93.2957H92.0898V90.1704H92.8547L93.7726 91.6949C93.9256 91.9236 94.0786 92.2285 94.1551 92.4572C94.1551 92.1523 94.1551 91.5425 94.1551 91.1613V90.1704H94.767V93.2957H93.9256Z" fill="white"/>
<path d="M97.4435 90.6281V93.2959H96.8316V90.6281H95.9902V90.0945H98.2084V90.6281H97.4435Z" fill="white"/>
<path d="M64.6291 97.9458C63.5582 97.9458 63.1758 97.1836 63.1758 96.4213C63.1758 95.4304 63.7112 94.7444 64.7821 94.7444C65.0115 94.7444 65.241 94.7444 65.4705 94.8206L65.394 95.3542C65.1645 95.278 64.935 95.278 64.7821 95.278C64.1701 95.278 63.8642 95.7353 63.8642 96.3451C63.8642 97.0311 64.1701 97.4123 64.7821 97.4123C64.935 97.4123 65.241 97.336 65.394 97.2598L65.4705 97.7934C65.1645 97.8696 64.8586 97.9458 64.6291 97.9458Z" fill="white"/>
<path d="M67.9943 97.9457C67 97.9457 66.541 97.3359 66.541 96.3449C66.541 95.2778 67.2294 94.668 68.0708 94.668C68.9122 94.668 69.5241 95.2015 69.5241 96.2687C69.6006 97.3359 68.9122 97.9457 67.9943 97.9457ZM68.0708 95.2015C67.6119 95.2015 67.2294 95.5827 67.2294 96.2687C67.2294 96.9547 67.4589 97.3359 68.0708 97.3359C68.4533 97.3359 68.9122 97.031 68.9122 96.2687C68.9122 95.5827 68.6062 95.2015 68.0708 95.2015Z" fill="white"/>
<path d="M71.9738 97.9457C70.9795 97.9457 70.75 97.4121 70.75 96.8023V94.7442H71.3619V96.7261C71.3619 97.1072 71.5149 97.4121 72.0503 97.4121C72.5093 97.4121 72.7387 97.1834 72.7387 96.6498V94.668H73.3506V96.5736C73.3506 97.5645 72.8152 97.9457 71.9738 97.9457Z" fill="white"/>
<path d="M76.4087 97.8696L75.4908 96.5738V97.8696H74.8789V94.7444C75.1084 94.7444 75.4143 94.7444 75.7968 94.7444C76.4852 94.7444 76.9441 94.9731 76.9441 95.6591C76.9441 96.1164 76.6382 96.4976 76.1027 96.5738C76.1792 96.7262 76.2557 96.8025 76.3322 96.9549L77.0971 98.0221H76.4087V97.8696ZM75.7203 95.2017C75.6438 95.2017 75.5673 95.2017 75.4908 95.2017V96.1164C75.5673 96.1164 75.6438 96.1164 75.7203 96.1164C76.1027 96.1164 76.3322 95.964 76.3322 95.6591C76.3322 95.3542 76.1027 95.2017 75.7203 95.2017Z" fill="white"/>
<path d="M80.4627 97.8696L80.2332 97.2598H79.0094L78.7799 97.8696H78.168L79.2388 94.7444H79.9272L81.0746 97.8696H80.4627ZM79.7742 95.964C79.6978 95.8115 79.6978 95.6591 79.6213 95.4304C79.6213 95.5829 79.5448 95.8115 79.4683 95.964L79.1623 96.8025H80.0802L79.7742 95.964Z" fill="white"/>
<path d="M84.5928 95.4304C84.3634 95.3541 84.0574 95.2779 83.7514 95.2779C83.1395 95.2779 82.6806 95.659 82.6806 96.3451C82.6806 97.0311 83.063 97.4122 83.675 97.4122C83.8279 97.4122 83.9809 97.4122 84.0574 97.336V96.2688H84.6693V97.7933C84.3634 97.9458 83.9809 98.022 83.5985 98.022C82.6041 98.022 81.9922 97.4122 81.9922 96.4975C81.9922 95.5066 82.6806 94.8206 83.7514 94.8206C84.0574 94.8206 84.3634 94.8968 84.6693 94.973L84.5928 95.4304Z" fill="white"/>
<path d="M86.2754 97.8696V94.7444H87.9581V95.278H86.8108V96.0402H87.9581V96.5738H86.8873V97.4123H87.9581V97.9458H86.2754V97.8696Z" fill="white"/>
<path d="M90.7131 97.9457C89.7187 97.9457 89.2598 97.3359 89.2598 96.3449C89.2598 95.2778 89.9482 94.668 90.7896 94.668C91.6309 94.668 92.2429 95.2015 92.2429 96.2687C92.2429 97.3359 91.5545 97.9457 90.7131 97.9457ZM90.7131 95.2015C90.2541 95.2015 89.8717 95.5827 89.8717 96.2687C89.8717 96.9547 90.1012 97.3359 90.7131 97.3359C91.0955 97.3359 91.5545 97.031 91.5545 96.2687C91.5545 95.5827 91.2485 95.2015 90.7131 95.2015Z" fill="white"/>
<path d="M94.6145 97.9457C93.6201 97.9457 93.3906 97.4121 93.3906 96.8023V94.7442H94.0025V96.7261C94.0025 97.1072 94.1555 97.4121 94.6909 97.4121C95.1499 97.4121 95.3794 97.1834 95.3794 96.6498V94.668H95.9913V96.5736C95.9148 97.5645 95.4558 97.9457 94.6145 97.9457Z" fill="white"/>
<path d="M97.8268 97.9458C97.5973 97.9458 97.3678 97.9459 97.2148 97.8696L97.2913 97.3361C97.4443 97.4123 97.7503 97.4123 97.9797 97.4123C98.2857 97.4123 98.5152 97.2598 98.5152 97.0311C98.5152 96.4213 97.2148 96.7262 97.2148 95.6591C97.2148 95.1255 97.6738 94.7444 98.4387 94.7444C98.5917 94.7444 98.8211 94.7444 98.9741 94.8206V95.3542C98.6681 95.2017 98.4387 95.2017 98.2857 95.2017C97.9032 95.2017 97.7503 95.3542 97.7503 95.5829C97.7503 96.1164 99.0506 95.964 99.0506 96.9549C99.0506 97.4885 98.5917 97.9458 97.8268 97.9458Z" fill="white"/>
<path d="M50.1743 65.7026V64.3306H48.7975V65.7026H48.1855V62.5774H48.7975V63.8732H50.1743V62.5774H50.7862V65.7026H50.1743Z" fill="white"/>
<path d="M53.3849 65.7784C52.3906 65.7784 51.9316 65.1686 51.9316 64.1777C51.9316 63.1105 52.62 62.5007 53.4614 62.5007C54.3028 62.5007 54.9147 63.0343 54.9147 64.1015C54.9147 65.1686 54.2263 65.7784 53.3849 65.7784ZM53.4614 63.1105C53.0025 63.1105 52.62 63.4917 52.62 64.1777C52.62 64.8637 52.8495 65.2449 53.4614 65.2449C53.8439 65.2449 54.3028 64.9399 54.3028 64.1777C54.3028 63.4917 53.9969 63.1105 53.4614 63.1105Z" fill="white"/>
<path d="M58.0506 65.7026L57.1327 64.1019C56.9797 63.8732 56.9032 63.6445 56.8268 63.4159C56.8268 63.7208 56.8268 64.1781 56.8268 64.5593V65.7026H56.2148V62.5774H56.9797L57.8976 64.1019C58.0506 64.3306 58.2036 64.6355 58.2801 64.8642C58.2801 64.5593 58.2801 63.9494 58.2801 63.5683V62.5774H58.892V65.7026H58.0506Z" fill="white"/>
<path d="M61.5705 65.7784C60.5761 65.7784 60.1172 65.1686 60.1172 64.1777C60.1172 63.1105 60.8056 62.5007 61.647 62.5007C62.4884 62.5007 63.1003 63.0343 63.1003 64.1015C63.1768 65.1686 62.4884 65.7784 61.5705 65.7784ZM61.647 63.1105C61.188 63.1105 60.8056 63.4917 60.8056 64.1777C60.8056 64.8637 61.0351 65.2449 61.647 65.2449C62.0294 65.2449 62.4884 64.9399 62.4884 64.1777C62.4884 63.4917 62.1824 63.1105 61.647 63.1105Z" fill="white"/>
<path d="M65.9302 65.7026L65.0123 64.4068V65.7026H64.4004V62.5774C64.6299 62.5774 64.9358 62.5774 65.3183 62.5774C66.0067 62.5774 66.4656 62.8061 66.4656 63.4921C66.4656 63.9495 66.1596 64.3306 65.6242 64.4068C65.7007 64.5593 65.7772 64.6355 65.8537 64.7879L66.6186 65.8551H65.9302V65.7026ZM65.3183 63.0347C65.2418 63.0347 65.1653 63.0347 65.0888 63.0347V63.9494C65.1653 63.9494 65.2418 63.9494 65.3183 63.9494C65.7007 63.9494 65.9302 63.797 65.9302 63.4921C65.8537 63.1872 65.7007 63.0347 65.3183 63.0347Z" fill="white"/>
<path d="M69.906 65.7026L69.6765 65.0928H68.4527L68.2232 65.7026H67.6113L68.6822 62.5774H69.3706L70.5179 65.7026H69.906ZM69.2176 63.797C69.1411 63.6445 69.1411 63.4921 69.0646 63.2634C68.9881 63.4159 68.9881 63.6445 68.9116 63.797L68.6057 64.6355H69.5236L69.2176 63.797Z" fill="white"/>
<path d="M72.7382 65.7783C72.5087 65.7783 72.2028 65.7783 71.8203 65.7783V62.6531C72.1263 62.6531 72.5087 62.6531 72.8912 62.6531C73.5796 62.6531 73.962 62.958 73.962 63.4153C73.962 63.7202 73.7325 64.0251 73.4266 64.1014C73.809 64.1776 73.962 64.4825 73.962 64.7874C73.962 65.2447 73.6561 65.7783 72.7382 65.7783ZM72.7382 63.0342C72.5852 63.0342 72.5087 63.0342 72.3557 63.0342V63.8727C72.4322 63.8727 72.5087 63.8727 72.5852 63.8727C72.9677 63.8727 73.1971 63.7202 73.1971 63.4153C73.2736 63.1867 73.1206 63.0342 72.7382 63.0342ZM72.6617 64.33C72.5852 64.33 72.4322 64.33 72.3557 64.33V65.2447C72.4322 65.2447 72.5852 65.2447 72.6617 65.2447C73.0441 65.2447 73.2736 65.0923 73.2736 64.7874C73.3501 64.4825 73.0441 64.33 72.6617 64.33Z" fill="white"/>
<path d="M75.2617 65.7026V62.5774H75.8736V65.1691H76.868V65.7026H75.2617Z" fill="white"/>
<path d="M78.0156 65.7026V62.5774H79.6984V63.111H78.6275V63.8732H79.6984V64.3306H78.6275V65.1691H79.6984V65.7026H78.0156Z" fill="white"/>
<path d="M68.1484 107.093V103.968H68.7604V107.093H68.1484Z" fill="white"/>
<path d="M72.3553 107.093L71.4374 105.492C71.2844 105.264 71.2079 105.035 71.1314 104.806C71.1314 105.111 71.1314 105.569 71.1314 105.95V107.093H70.5195V103.968H71.2844L72.2023 105.492C72.3553 105.721 72.5083 106.026 72.5847 106.255C72.5847 105.95 72.5847 105.34 72.5847 104.959V103.968H73.1967V107.093H72.3553Z" fill="white"/>
<path d="M75.6447 104.425V107.093H75.0328V104.425H74.1914V103.892H76.4096V104.425H75.6447Z" fill="white"/>
<path d="M77.709 107.093V103.968H79.3918V104.501H78.2444V105.264H79.3153V105.797H78.2444V106.636H79.3918V107.169H77.709V107.093Z" fill="white"/>
<path d="M83.2175 104.578C82.988 104.501 82.6821 104.425 82.3761 104.425C81.7642 104.425 81.3053 104.806 81.3053 105.492C81.3053 106.178 81.6877 106.559 82.2996 106.559C82.4526 106.559 82.6056 106.559 82.6821 106.483V105.416H83.3705V106.941C83.0645 107.093 82.6821 107.169 82.2996 107.169C81.3053 107.169 80.6934 106.559 80.6934 105.645C80.6934 104.654 81.3818 103.968 82.4526 103.968C82.7586 103.968 83.0645 104.044 83.3705 104.12L83.2175 104.578Z" fill="white"/>
<path d="M86.4302 107.093L85.5123 105.797V107.093H84.9004V103.968C85.1299 103.968 85.4358 103.968 85.8183 103.968C86.5067 103.968 86.9656 104.196 86.9656 104.882C86.9656 105.34 86.6596 105.721 86.1242 105.721C86.2007 105.873 86.2772 105.95 86.3537 106.102L87.1186 107.169H86.4302V107.093ZM85.7418 104.425C85.6653 104.425 85.5888 104.425 85.5123 104.425V105.34C85.5888 105.34 85.6653 105.34 85.7418 105.34C86.1242 105.34 86.3537 105.187 86.3537 104.882C86.2772 104.578 86.1242 104.425 85.7418 104.425Z" fill="white"/>
<path d="M88.418 107.093V103.968H89.0299V107.093H88.418Z" fill="white"/>
<path d="M91.6307 104.425V107.093H91.0188V104.425H90.2539V103.892H92.4721V104.425H91.6307Z" fill="white"/>
<path d="M94.7664 105.95V107.093H94.1545V105.95L93.1602 103.892H93.8486L94.231 104.806C94.3075 104.959 94.384 105.187 94.4605 105.34C94.537 105.187 94.6135 104.959 94.6899 104.73L95.0724 103.892H95.7608L94.7664 105.95Z" fill="white"/>
<path d="M71.3608 111.666H70.6724L69.6016 108.541H70.29L70.9019 110.37C70.9784 110.523 71.0549 110.752 71.0549 110.98C71.1314 110.752 71.1314 110.599 71.2078 110.294L71.8198 108.465H72.4317L71.3608 111.666Z" fill="white"/>
<path d="M75.3377 111.666L75.1082 111.056H73.8844L73.6549 111.666H73.043L74.1138 108.541H74.8022L75.9496 111.666H75.3377ZM74.6492 109.684C74.5728 109.532 74.5728 109.379 74.4963 109.151C74.4963 109.303 74.4198 109.532 74.3433 109.684L74.0373 110.523H74.9552L74.6492 109.684Z" fill="white"/>
<path d="M77.0977 111.666V108.541H77.7096V111.132H78.7039V111.666H77.0977Z" fill="white"/>
<path d="M80.0039 111.666V108.541H80.6158V111.666H80.0039Z" fill="white"/>
<path d="M84.1345 111.666L83.9051 111.056H82.6812L82.4518 111.666H81.8398L82.9107 108.541H83.5991L84.7464 111.666H84.1345ZM83.4461 109.684C83.3696 109.532 83.3696 109.379 83.2931 109.151C83.2167 109.303 83.2167 109.532 83.1402 109.684L82.8342 110.523H83.7521L83.4461 109.684Z" fill="white"/>
<path d="M87.6521 111.666L86.7343 110.065C86.5813 109.837 86.5048 109.608 86.4283 109.379C86.4283 109.684 86.4283 110.142 86.4283 110.523V111.666H85.8164V108.541H86.5813L87.4227 110.065C87.5757 110.294 87.7286 110.599 87.8051 110.828C87.8051 110.523 87.8051 109.913 87.8051 109.532V108.541H88.417V111.666H87.6521Z" fill="white"/>
<path d="M90.9416 108.998V111.666H90.3297V108.998H89.4883V108.465H91.783V108.998H90.9416Z" fill="white"/>
<path d="M51.3202 70.3523C51.0143 70.3523 50.7083 70.3523 50.4023 70.3523V67.2271C50.6318 67.2271 51.0143 67.2271 51.3967 67.2271C52.3911 67.2271 53.003 67.6844 53.003 68.7516C53.003 69.8187 52.3146 70.3523 51.3202 70.3523ZM51.3967 67.6844C51.2437 67.6844 51.0907 67.6844 51.0143 67.6844V69.8187C51.0907 69.8187 51.2437 69.8187 51.3202 69.8187C51.9321 69.8187 52.3146 69.5138 52.3146 68.7516C52.3911 68.0655 52.0851 67.6844 51.3967 67.6844Z" fill="white"/>
<path d="M54.2266 70.3523V67.2271H55.9093V67.7606H54.8385V68.5229H55.8328V69.0565H54.762V69.8949H55.8328V70.4285H54.2266V70.3523Z" fill="white"/>
<path d="M58.205 70.3523C57.899 70.3523 57.5931 70.3523 57.2871 70.3523V67.2271C57.5166 67.2271 57.899 67.2271 58.2815 67.2271C59.2758 67.2271 59.8877 67.6844 59.8877 68.7516C59.8877 69.8187 59.1993 70.3523 58.205 70.3523ZM58.2815 67.6844C58.1285 67.6844 57.9755 67.6844 57.899 67.6844V69.8187C57.9755 69.8187 58.1285 69.8187 58.205 69.8187C58.8169 69.8187 59.1993 69.5138 59.1993 68.7516C59.2758 68.0655 58.9699 67.6844 58.2815 67.6844Z" fill="white"/>
<path d="M61.1875 70.3523V67.2271H61.7994V70.3523H61.1875Z" fill="white"/>
<path d="M64.7053 70.3524C63.6344 70.3524 63.252 69.5901 63.252 68.8278C63.252 67.8369 63.7874 67.1509 64.8582 67.1509C65.0877 67.1509 65.3172 67.1509 65.5466 67.2271L65.4701 67.7607C65.2407 67.6845 65.0112 67.6845 64.8582 67.6845C64.2463 67.6845 63.9404 68.1418 63.9404 68.7516C63.9404 69.4376 64.2463 69.8188 64.8582 69.8188C65.0877 69.8188 65.3172 69.7425 65.4701 69.6663L65.5466 70.1999C65.3172 70.2761 65.0112 70.3524 64.7053 70.3524Z" fill="white"/>
<path d="M68.7592 70.3523L68.5297 69.7425H67.3059L67.0764 70.3523H66.541L67.6119 67.2271H68.3003L69.4476 70.3523H68.7592ZM68.1473 68.3704C68.0708 68.218 68.0708 68.0655 67.9943 67.8369C67.9943 67.9893 67.9178 68.218 67.8413 68.3704L67.5354 69.2089H68.4533L68.1473 68.3704Z" fill="white"/>
<path d="M71.4377 67.6845V70.3524H70.8258V67.6845H69.9844V67.1509H72.2026V67.6845H71.4377Z" fill="white"/>
<path d="M73.502 70.3523V67.2271H75.1847V67.7606H74.0374V68.5229H75.1082V69.0565H74.0374V69.8949H75.1847V70.4285H73.502V70.3523Z" fill="white"/>
<path d="M77.5543 70.3523C77.2483 70.3523 76.9424 70.3523 76.7129 70.3523V67.2271C76.9424 67.2271 77.3248 67.2271 77.7073 67.2271C78.7016 67.2271 79.3135 67.6844 79.3135 68.7516C79.3135 69.8187 78.5486 70.3523 77.5543 70.3523ZM77.6308 67.6844C77.4778 67.6844 77.3248 67.6844 77.2483 67.6844V69.8187C77.3248 69.8187 77.4778 69.8187 77.5543 69.8187C78.1662 69.8187 78.5486 69.5138 78.5486 68.7516C78.6251 68.0655 78.3957 67.6844 77.6308 67.6844Z" fill="white"/>
<path d="M94.2321 61.1289L94.0026 59.6043C93.9261 59.2994 93.9261 59.0708 93.9261 58.8421C93.8496 59.0708 93.8496 59.2232 93.7732 59.5281L93.2377 61.1289H92.6258L92.1669 59.6806C92.0904 59.4519 92.0139 59.147 91.9374 58.9183C91.9374 59.2232 91.8609 59.4519 91.8609 59.7568L91.7079 61.2051H91.0195L91.4785 58.0798H92.1669L92.7023 59.6806C92.7788 59.9092 92.8553 60.1379 92.8553 60.3666C92.9318 60.1379 92.9318 59.9092 93.0083 59.6806L93.5437 58.0798H94.2321L94.691 61.2051H94.2321V61.1289Z" fill="white"/>
<path d="M96.2188 61.1289V58.0037H96.8307V61.1289H96.2188Z" fill="white"/>
<path d="M98.9736 61.2051C98.7441 61.2051 98.5146 61.2051 98.3616 61.1289V60.5953C98.5146 60.6716 98.8206 60.6716 99.0501 60.6716C99.356 60.6716 99.5855 60.5191 99.5855 60.2904C99.5855 59.6806 98.2852 59.9855 98.2852 58.9184C98.2852 58.3848 98.7441 58.0037 99.509 58.0037C99.662 58.0037 99.8914 58.0037 100.044 58.0799V58.6135C99.8914 58.5372 99.662 58.5372 99.509 58.5372C99.1265 58.5372 98.9736 58.6897 98.9736 58.9184C98.9736 59.4519 100.274 59.2995 100.274 60.2904C100.197 60.7478 99.7385 61.2051 98.9736 61.2051Z" fill="white"/>
<path d="M102.184 61.2051C101.955 61.2051 101.726 61.2051 101.573 61.1289V60.5953C101.726 60.6716 102.032 60.6716 102.261 60.6716C102.567 60.6716 102.796 60.5191 102.796 60.2904C102.796 59.6806 101.496 59.9855 101.496 58.9184C101.496 58.3848 101.955 58.0037 102.72 58.0037C102.873 58.0037 103.102 58.0037 103.255 58.0799V58.6135C103.102 58.5372 102.873 58.5372 102.72 58.5372C102.337 58.5372 102.184 58.6897 102.184 58.9184C102.184 59.4519 103.485 59.2995 103.485 60.2904C103.485 60.7478 102.949 61.2051 102.184 61.2051Z" fill="white"/>
<path d="M104.863 61.1289V58.0037H105.475V61.1289H104.863Z" fill="white"/>
<path d="M108.381 61.2049C107.387 61.2049 106.928 60.5951 106.928 59.6042C106.928 58.5371 107.616 57.9272 108.458 57.9272C109.299 57.9272 109.911 58.4608 109.911 59.528C109.911 60.5951 109.222 61.2049 108.381 61.2049ZM108.381 58.4608C107.922 58.4608 107.54 58.842 107.54 59.528C107.54 60.214 107.769 60.5951 108.381 60.5951C108.763 60.5951 109.222 60.2902 109.222 59.528C109.222 58.842 108.916 58.4608 108.381 58.4608Z" fill="white"/>
<path d="M113.047 61.1289L112.129 59.5282C111.976 59.2995 111.899 59.0708 111.823 58.8421C111.823 59.147 111.823 59.6044 111.823 59.9855V61.1289H111.211V58.0037H111.976L112.894 59.5282C113.047 59.7569 113.2 60.0618 113.276 60.2904C113.276 59.9855 113.276 59.3757 113.276 58.9946V58.0037H113.888V61.1289H113.047Z" fill="white"/>
</svg>
