<svg width="130" height="146" viewBox="0 0 130 146" fill="none" xmlns="http://www.w3.org/2000/svg">
<path d="M0.751953 112.92C0.751953 108.996 3.36701 106.183 6.5051 106.183C7.55113 106.183 8.40102 106.576 9.12017 107.034C9.3163 107.164 9.5778 107.23 9.77393 107.23C10.0354 107.23 10.1662 107.034 10.4277 106.183H11.0815L11.2122 111.481H10.5585C9.70857 108.407 8.00877 107.034 6.43973 107.034C4.02079 107.034 2.97476 109.519 2.97476 112.854C2.97476 115.994 4.21691 118.61 6.70123 118.61C8.79329 118.61 10.0354 117.302 10.6238 114.424H11.5391C11.0161 117.825 9.05479 119.656 6.5051 119.656C3.23626 119.591 0.751953 116.648 0.751953 112.92Z" fill="#828282"/>
<path d="M13.2383 114.947C13.2383 112.397 15.1342 110.238 17.357 110.238C19.6452 110.238 21.4104 112.331 21.4104 114.882C21.4104 117.498 19.5798 119.591 17.2916 119.591C15.0034 119.591 13.2383 117.498 13.2383 114.947ZM19.4491 114.947C19.4491 112.658 18.6645 111.023 17.2916 111.023C15.8533 111.023 15.1996 112.593 15.1996 114.882C15.1996 117.171 15.9841 118.806 17.357 118.806C18.7299 118.806 19.4491 117.236 19.4491 114.947Z" fill="#828282"/>
<path d="M22.7177 118.479H22.9792C23.7637 118.479 23.8945 118.283 23.8945 117.498V108.211C23.8945 107.426 23.7637 107.23 22.9792 107.23H22.6523V106.38L25.5943 106.052V110.435L25.3982 112.789H25.5289C26.1827 111.416 27.1633 110.369 28.4709 110.369C30.0399 110.369 30.9552 111.285 30.9552 113.312V117.498C30.9552 118.283 31.1513 118.479 31.9358 118.479H32.132V119.329H28.0132V118.479H28.4055C29.19 118.479 29.3208 118.283 29.3208 117.498V113.378C29.3208 112.2 28.9285 111.546 28.0132 111.546C26.7057 111.546 25.6597 113.443 25.6597 115.209V117.498C25.6597 118.283 25.8558 118.479 26.6403 118.479H27.0326V119.329H22.8485V118.479H22.7177Z" fill="#828282"/>
<path d="M33.2441 114.947C33.2441 112.135 35.2708 110.173 37.2975 110.173C39.1934 110.173 40.8932 111.743 40.8932 114.359C40.8932 114.555 40.8932 114.882 40.8278 115.143H35.0747C35.1401 117.171 36.0553 118.479 37.559 118.479C38.605 118.479 39.4549 117.956 40.2395 116.909L40.8278 117.302C39.9126 118.675 38.8012 119.526 37.1014 119.526C34.8786 119.591 33.2441 117.825 33.2441 114.947ZM38.1474 114.359C38.8012 114.359 38.9973 114.228 38.9973 113.705C38.9973 112.07 38.3435 111.088 37.2321 111.088C36.1207 111.088 35.2054 112.2 35.1401 114.359H38.1474Z" fill="#828282"/>
<path d="M42.3319 118.479H42.6588C43.4433 118.479 43.5741 118.283 43.5741 117.498V112.397C43.5741 111.612 43.4433 111.416 42.6588 111.416H42.3319V110.565L45.2739 110.369L45.0777 112.789H45.2085C45.8623 111.416 46.8429 110.369 48.1505 110.369C49.7195 110.369 50.6348 111.285 50.6348 113.312V117.498C50.6348 118.283 50.7655 118.479 51.55 118.479H51.7462V119.329H47.6274V118.479H47.9543C48.7388 118.479 48.8696 118.283 48.8696 117.498V113.378C48.8696 112.2 48.4773 111.546 47.5621 111.546C46.2545 111.546 45.2085 113.443 45.2085 115.209V117.498C45.2085 118.283 45.4046 118.479 46.1238 118.479H46.4507V119.329H42.2012V118.479H42.3319Z" fill="#828282"/>
<path d="M59.0678 108.407C58.7409 107.557 58.2833 107.295 57.1719 107.23V106.38H62.7943V107.23H62.0751C61.4214 107.23 61.1599 107.426 61.1599 107.753C61.1599 108.08 61.2252 108.473 61.4214 108.93L64.1672 116.844L66.7823 109.519C66.9784 108.865 67.1091 108.342 67.1091 107.884C67.1091 107.426 66.7823 107.23 66.1285 107.23H65.6055V106.38H70.1818V107.164C69.0051 107.295 68.6128 107.688 68.1552 108.93L64.1018 119.656H63.2519L59.0678 108.407Z" fill="#828282"/>
<path d="M69.0703 114.947C69.0703 112.135 71.097 110.173 73.1237 110.173C75.0196 110.173 76.7194 111.743 76.7194 114.359C76.7194 114.555 76.7194 114.882 76.654 115.143H70.9009C70.9662 117.171 71.8815 118.479 73.3852 118.479C74.4312 118.479 75.2811 117.956 76.0656 116.909L76.654 117.302C75.7387 118.675 74.6273 119.526 72.9275 119.526C70.7047 119.591 69.0703 117.825 69.0703 114.947ZM73.9736 114.359C74.6273 114.359 74.8235 114.228 74.8235 113.705C74.8235 112.07 74.1697 111.088 73.0583 111.088C71.9469 111.088 71.0316 112.2 70.9662 114.359H73.9736Z" fill="#828282"/>
<path d="M79.1385 116.909V111.415H77.7656V110.761C79.3347 110.434 79.8577 109.388 80.0538 106.968H80.8383V110.565H83.388V111.481H80.8383V116.844C80.8383 117.956 81.1652 118.479 81.8844 118.479C82.6035 118.479 83.1265 117.825 83.1919 116.255H83.9764C83.9764 118.414 82.9958 119.656 81.5575 119.656C80.0538 119.591 79.1385 118.741 79.1385 116.909Z" fill="#828282"/>
<path d="M85.1523 114.947C85.1523 112.135 87.179 110.173 89.2057 110.173C91.1016 110.173 92.8014 111.743 92.8014 114.359C92.8014 114.555 92.8014 114.882 92.736 115.143H86.9829C87.0483 117.171 87.9635 118.479 89.4672 118.479C90.5132 118.479 91.3631 117.956 92.1476 116.909L92.736 117.302C91.8207 118.675 90.7094 119.526 89.0096 119.526C86.7868 119.591 85.1523 117.825 85.1523 114.947ZM90.121 114.359C90.7747 114.359 90.9709 114.228 90.9709 113.705C90.9709 112.07 90.3171 111.088 89.2057 111.088C88.0943 111.088 87.179 112.2 87.1136 114.359H90.121Z" fill="#828282"/>
<path d="M94.2412 118.479H94.568C95.3526 118.479 95.4833 118.283 95.4833 117.498V112.397C95.4833 111.612 95.3526 111.416 94.568 111.416H94.2412V110.565L97.1831 110.369L96.9216 113.378H97.0524C97.7715 111.481 98.7522 110.304 99.9289 110.304C101.04 110.304 101.629 110.958 101.629 111.939C101.629 112.789 101.106 113.378 100.452 113.378C99.7982 113.378 99.4059 112.92 99.4059 112.462C99.4059 112.07 99.6021 111.743 99.8636 111.546C99.9943 111.416 99.9943 111.219 99.7328 111.219C98.4907 111.219 97.1177 113.966 97.1177 115.928V117.498C97.1177 118.283 97.3139 118.479 98.033 118.479H98.6214V119.329H94.1758V118.479H94.2412Z" fill="#828282"/>
<path d="M102.283 117.433C102.283 115.798 103.918 114.751 107.644 113.966V113.705C107.644 111.939 107.121 111.219 105.814 111.219C105.094 111.219 104.506 111.416 104.375 111.612C104.31 111.677 104.245 111.808 104.441 111.939C104.768 112.135 105.029 112.397 105.029 112.854C105.029 113.443 104.571 113.901 103.918 113.901C103.198 113.901 102.741 113.378 102.741 112.724C102.741 111.416 104.114 110.435 106.14 110.435C108.167 110.435 109.409 111.481 109.409 113.639V117.891C109.409 118.414 109.605 118.545 109.867 118.545C110.063 118.545 110.259 118.414 110.521 118.218L110.913 118.675C110.39 119.264 109.932 119.591 109.344 119.591C108.559 119.591 107.906 118.937 107.906 117.825H107.775C107.121 118.937 106.14 119.656 104.768 119.656C103.329 119.526 102.283 118.806 102.283 117.433ZM107.579 115.667V114.62C104.702 115.209 104.114 116.059 104.114 117.106C104.114 117.825 104.506 118.348 105.291 118.348C106.337 118.414 107.579 117.433 107.579 115.667Z" fill="#828282"/>
<path d="M111.695 118.479H112.022C112.807 118.479 112.937 118.283 112.937 117.498V112.397C112.937 111.612 112.807 111.416 112.022 111.416H111.695V110.565L114.637 110.369L114.441 112.789H114.572C115.226 111.416 116.206 110.369 117.514 110.369C119.083 110.369 119.998 111.285 119.998 113.312V117.498C119.998 118.283 120.129 118.479 120.913 118.479H121.11V119.329H116.991V118.479H117.383C118.168 118.479 118.298 118.283 118.298 117.498V113.378C118.298 112.2 117.906 111.546 116.991 111.546C115.683 111.546 114.637 113.443 114.637 115.209V117.498C114.637 118.283 114.833 118.479 115.618 118.479H115.945V119.329H111.695V118.479Z" fill="#828282"/>
<path d="M122.482 115.863H123.005C123.463 117.367 124.64 118.741 126.34 118.741C127.451 118.741 128.105 118.218 128.105 117.367C128.105 116.582 127.582 116.19 125.686 115.732C123.79 115.209 122.613 114.62 122.613 112.854C122.613 111.35 123.725 110.369 125.359 110.369C126.536 110.369 127.059 110.892 127.582 110.892C127.843 110.892 128.039 110.762 128.236 110.369H128.759V113.574H128.17C127.843 112.527 126.863 111.154 125.228 111.154C124.378 111.154 123.79 111.612 123.79 112.331C123.79 113.116 124.444 113.443 126.078 113.901C128.366 114.49 129.347 115.209 129.347 116.844C129.347 118.545 128.105 119.526 126.274 119.526C124.967 119.526 124.051 118.806 123.659 118.806C123.398 118.806 123.202 119.002 123.005 119.526H122.482V115.863Z" fill="#828282"/>
<path d="M0.0976562 143.397H1.20906C2.38584 143.397 2.90885 143.136 2.90885 141.959V127.897C2.90885 126.72 2.45122 126.458 1.20906 126.458H0.0976562V125.15H8.59663C13.0422 125.15 16.2457 126.72 16.2457 129.99C16.2457 132.671 13.7614 133.979 11.4732 134.437V134.633C14.8074 135.287 16.8341 136.465 16.8341 139.342C16.8341 142.547 13.4999 144.705 9.11964 144.705H0.0976562V143.397ZM8.33512 134.045C11.8001 134.045 13.0422 132.54 13.0422 130.186C13.0422 127.701 11.5386 126.458 8.46587 126.458H7.35447C6.17769 126.458 5.65468 126.72 5.65468 127.897V133.979H8.33512V134.045ZM9.11964 143.397C12.2577 143.397 13.6306 141.828 13.6306 139.408C13.6306 136.857 12.1923 135.287 8.79275 135.287H5.72005V141.959C5.72005 143.136 6.17769 143.397 7.41985 143.397H9.11964Z" fill="#AF1F23"/>
<path d="M19.1219 143.398H19.5795C20.691 143.398 20.8871 143.136 20.8871 141.959V134.241C20.8871 133.064 20.6256 132.737 19.5795 132.737H18.9258V131.494L23.5021 131.167V141.959C23.5021 143.136 23.7637 143.398 24.8751 143.398H25.2019V144.706H19.1873V143.398H19.1219ZM19.9718 126.72C19.9718 125.673 20.8217 124.823 21.8024 124.823C22.8484 124.823 23.6983 125.739 23.6983 126.72C23.6983 127.766 22.8484 128.616 21.8024 128.616C20.8871 128.616 19.9718 127.701 19.9718 126.72Z" fill="#AF1F23"/>
<path d="M27.0332 138.1C27.0332 134.241 29.8444 130.971 33.244 130.971C36.6436 130.971 39.3894 134.11 39.3894 138.035C39.3894 141.959 36.5782 145.163 33.1786 145.163C29.7136 145.163 27.0332 142.024 27.0332 138.1ZM36.3821 138.1C36.3821 134.634 35.2707 132.214 33.1132 132.214C30.9558 132.214 29.9752 134.568 29.9752 138.035C29.9752 141.501 31.0866 143.921 33.244 143.921C35.4014 143.921 36.3821 141.566 36.3821 138.1Z" fill="#AF1F23"/>
<path d="M41.8085 139.473H42.593C43.2468 141.762 45.0773 143.79 47.627 143.79C49.2614 143.79 50.3075 143.005 50.3075 141.762C50.3075 140.585 49.4576 139.996 46.6464 139.277C43.7698 138.492 42.0046 137.642 42.0046 134.96C42.0046 132.671 43.7044 131.167 46.1234 131.167C47.8885 131.167 48.7384 131.952 49.4576 131.952C49.8498 131.952 50.1113 131.756 50.4382 131.167H51.2881V136.007H50.3729C49.8498 134.437 48.3462 132.41 45.9272 132.41C44.6197 132.41 43.7698 133.064 43.7698 134.241C43.7698 135.418 44.8158 135.941 47.1694 136.595C50.6344 137.511 52.0727 138.558 52.0727 141.043C52.0727 143.594 50.1767 145.098 47.4309 145.098C45.4696 145.098 44.0313 143.986 43.5083 143.986C43.116 143.986 42.7891 144.313 42.5276 145.098H41.6777V139.473H41.8085Z" fill="#AF1F23"/>
<path d="M54.2305 138.165C54.2305 133.849 57.5647 131.036 60.8989 131.036C63.4486 131.036 65.4753 132.606 65.4753 134.764C65.4753 136.138 64.6254 136.923 63.5793 136.923C62.5987 136.923 61.8795 136.203 61.8795 135.091C61.8795 134.241 62.4679 133.653 62.9909 133.522C63.3178 133.391 63.3178 133.195 63.1871 132.998C62.7948 132.541 62.0103 132.279 60.9643 132.279C58.6761 132.279 57.1724 134.372 57.1724 137.969C57.1724 141.435 58.8068 143.528 60.9643 143.528C62.3372 143.528 63.6447 142.744 64.7561 141.37L65.5406 142.024C64.2331 143.855 62.4026 145.098 60.1144 145.098C56.9763 145.163 54.2305 142.482 54.2305 138.165Z" fill="#AF1F23"/>
<path d="M67.8934 143.398H68.351C69.4624 143.398 69.7239 143.136 69.7239 141.959V134.241C69.7239 133.064 69.4624 132.737 68.351 132.737H67.6973V131.494L72.2736 131.167V141.959C72.2736 143.136 72.5351 143.398 73.6465 143.398H73.9734V144.706H67.9588V143.398H67.8934ZM68.7433 126.72C68.7433 125.673 69.5932 124.823 70.5738 124.823C71.6199 124.823 72.4698 125.739 72.4698 126.72C72.4698 127.766 71.6199 128.616 70.5738 128.616C69.5932 128.616 68.7433 127.701 68.7433 126.72Z" fill="#AF1F23"/>
<path d="M75.7383 138.165C75.7383 133.914 78.811 131.036 81.8183 131.036C84.6949 131.036 87.2446 133.391 87.2446 137.315C87.2446 137.577 87.2446 138.1 87.1792 138.492H78.4841C78.6149 141.632 79.9878 143.594 82.2106 143.594C83.7796 143.594 85.0871 142.809 86.2639 141.174L87.1792 141.763C85.8063 143.855 84.1065 145.163 81.6222 145.163C78.2226 145.163 75.7383 142.417 75.7383 138.165ZM83.1912 137.184C84.1719 137.184 84.4988 136.988 84.4988 136.203C84.4988 133.783 83.4527 132.214 81.8183 132.214C80.1839 132.214 78.811 133.914 78.6149 137.184H83.1912Z" fill="#AF1F23"/>
<path d="M89.4668 143.397H89.9244C91.1012 143.397 91.2974 143.136 91.2974 141.959V134.241C91.2974 133.064 91.0358 132.802 89.9244 132.802H89.4668V131.494L93.9124 131.167L93.5855 134.83H93.7817C94.6969 132.802 96.266 131.232 98.2273 131.232C100.646 131.232 101.954 132.671 101.954 135.68V141.959C101.954 143.136 102.215 143.397 103.392 143.397H103.654V144.705H97.4428V143.397H97.9658C99.1426 143.397 99.4041 143.136 99.4041 141.959V135.745C99.4041 133.914 98.8157 132.998 97.4428 132.998C95.4815 132.998 93.9124 135.876 93.9124 138.492V141.959C93.9124 143.136 94.1739 143.397 95.3507 143.397H95.8737V144.705H89.4668V143.397Z" fill="#AF1F23"/>
<path d="M105.027 138.165C105.027 133.849 108.362 131.036 111.696 131.036C114.245 131.036 116.272 132.606 116.272 134.764C116.272 136.138 115.422 136.923 114.376 136.923C113.396 136.923 112.676 136.203 112.676 135.091C112.676 134.241 113.265 133.653 113.788 133.522C114.115 133.391 114.115 133.195 113.984 132.998C113.592 132.541 112.873 132.279 111.761 132.279C109.473 132.279 107.969 134.372 107.969 137.969C107.969 141.435 109.604 143.528 111.761 143.528C113.134 143.528 114.442 142.744 115.553 141.37L116.338 142.024C115.03 143.855 113.199 145.098 110.911 145.098C107.773 145.163 105.027 142.482 105.027 138.165Z" fill="#AF1F23"/>
<path d="M118.494 138.165C118.494 133.914 121.567 131.036 124.574 131.036C127.451 131.036 130 133.391 130 137.315C130 137.577 130 138.1 129.935 138.492H121.24C121.371 141.632 122.744 143.594 124.966 143.594C126.535 143.594 127.843 142.809 129.02 141.174L129.935 141.763C128.562 143.855 126.862 145.163 124.313 145.163C120.913 145.163 118.494 142.417 118.494 138.165ZM125.882 137.184C126.862 137.184 127.189 136.988 127.189 136.203C127.189 133.783 126.143 132.214 124.509 132.214C122.874 132.214 121.501 133.914 121.305 137.184H125.882Z" fill="#AF1F23"/>
<path d="M74.5715 34.185C72.8084 34.185 72.3047 33.0091 72.3047 31.7493C72.3047 30.1534 73.1443 29.0615 74.8234 29.0615C75.1592 29.0615 75.579 29.1455 75.9148 29.2295L75.8309 30.0694C75.4951 29.9854 75.1592 29.9014 74.8234 29.9014C73.8999 29.9014 73.3961 30.5734 73.3961 31.5813C73.3961 32.6732 73.8159 33.2611 74.8234 33.2611C75.1592 33.2611 75.4951 33.1771 75.7469 33.0931L75.8309 33.933C75.4951 34.101 75.0753 34.185 74.5715 34.185Z" fill="#134B8E"/>
<path d="M79.9446 34.185C78.4333 34.185 77.6777 33.2611 77.6777 31.6653C77.6777 29.9854 78.7692 29.0615 80.1125 29.0615C81.4558 29.0615 82.3793 29.8174 82.3793 31.5813C82.3793 33.2611 81.2879 34.185 79.9446 34.185ZM80.0285 29.9854C79.3569 29.9854 78.6852 30.4894 78.6852 31.6653C78.6852 32.7571 79.105 33.4291 79.9446 33.4291C80.6162 33.4291 81.2879 32.9251 81.2879 31.7493C81.2879 30.5734 80.8681 29.9854 80.0285 29.9854Z" fill="#134B8E"/>
<path d="M86.4095 34.185C84.8143 34.185 84.4785 33.3451 84.4785 32.3372V29.0615H85.402V32.2532C85.402 32.8411 85.57 33.3451 86.4095 33.3451C87.1651 33.3451 87.417 33.0091 87.417 32.1692V29.0615H88.3405V32.0852C88.5085 33.5971 87.7528 34.185 86.4095 34.185Z" fill="#134B8E"/>
<path d="M93.8819 34.101L92.4546 31.5813C92.2867 31.1613 92.0349 30.8253 91.9509 30.4894C91.9509 30.9093 92.0349 31.6653 92.0349 32.2532V34.017H91.1113V29.0615H92.3707L93.798 31.4133C94.0498 31.8332 94.2177 32.2532 94.3857 32.5892C94.3857 32.0852 94.3017 31.1613 94.3017 30.5734V29.0615H95.2252V34.017H93.8819V34.101Z" fill="#134B8E"/>
<path d="M99.3372 29.9854V34.101H98.4137V29.9854H97.1543V29.1455H100.68V29.9854H99.3372Z" fill="#134B8E"/>
<path d="M104.712 34.101L103.369 32.0852V34.101H102.445V29.1455C102.865 29.1455 103.285 29.1455 103.873 29.1455C104.964 29.1455 105.636 29.5655 105.636 30.5734C105.636 31.3293 105.132 31.8332 104.376 31.9172C104.544 32.0852 104.628 32.2532 104.796 32.4212L105.972 34.101H104.712ZM103.705 29.9014C103.537 29.9014 103.453 29.9014 103.369 29.9014V31.3293C103.453 31.3293 103.537 31.3293 103.705 31.3293C104.292 31.3293 104.628 30.9933 104.628 30.5734C104.544 30.1534 104.292 29.9014 103.705 29.9014Z" fill="#134B8E"/>
<path d="M109.413 32.3372V34.101H108.49V32.3372L106.979 29.1455H107.986L108.658 30.5734C108.826 30.8253 108.91 31.1613 108.993 31.4133C109.077 31.1613 109.245 30.8253 109.413 30.4894L110.001 29.1455H111.008L109.413 32.3372Z" fill="#134B8E"/>
<path d="M79.607 10.6673C79.5231 10.6673 79.4391 10.6673 79.2712 10.6673V12.4311H78.3477V7.3916C78.7674 7.3916 79.1872 7.3916 79.691 7.3916C80.9503 7.3916 81.622 7.97954 81.622 8.90345C81.538 9.91134 80.7824 10.6673 79.607 10.6673ZM79.607 8.14752C79.5231 8.14752 79.3551 8.14752 79.2712 8.14752V9.82735C79.3551 9.82735 79.4391 9.82735 79.5231 9.82735C80.1108 9.82735 80.5305 9.49139 80.5305 8.98744C80.5305 8.48349 80.2787 8.14752 79.607 8.14752Z" fill="#BC382E"/>
<path d="M86.1571 12.4311L85.8213 11.4232H83.9742L83.6384 12.4311H82.7148L84.4779 7.47559H85.5694L87.3325 12.4311H86.1571ZM85.1496 9.3234C85.0656 9.07142 84.9817 8.81945 84.8977 8.56747C84.8138 8.81945 84.7298 9.07142 84.6459 9.40739L84.2261 10.6673H85.5694L85.1496 9.3234Z" fill="#BC382E"/>
<path d="M90.4387 8.23152V12.3471H89.5152V8.23152H88.2559V7.3916H91.7821V8.23152H90.4387Z" fill="#BC382E"/>
<path d="M96.0637 12.4311L94.6364 10.4153V12.4311H93.7129V7.3916C94.1327 7.3916 94.5525 7.3916 95.1402 7.3916C96.2316 7.3916 96.9033 7.81156 96.9033 8.81946C96.9033 9.57538 96.3995 10.0793 95.6439 10.1633C95.8118 10.3313 95.8958 10.4993 96.0637 10.6673L97.2391 12.3471H96.0637V12.4311ZM95.0562 8.14752C94.8883 8.14752 94.8043 8.14752 94.7204 8.14752V9.57538C94.8043 9.57538 94.8883 9.57538 95.0562 9.57538C95.6439 9.57538 95.9797 9.23941 95.9797 8.81946C95.9797 8.3995 95.6439 8.14752 95.0562 8.14752Z" fill="#BC382E"/>
<path d="M99.3379 12.4311V7.3916H100.261V12.3471H99.3379V12.4311Z" fill="#BC382E"/>
<path d="M104.712 12.5151C103.201 12.5151 102.445 11.5072 102.445 9.99534C102.445 8.31551 103.537 7.3916 104.88 7.3916C106.223 7.3916 107.147 8.23152 107.147 9.91134C107.147 11.5072 106.139 12.5151 104.712 12.5151ZM104.796 8.23152C104.124 8.23152 103.453 8.73546 103.453 9.91134C103.453 11.0032 103.873 11.6752 104.796 11.6752C105.468 11.6752 106.139 11.1712 106.139 9.99534C106.139 8.81946 105.72 8.23152 104.796 8.23152Z" fill="#BC382E"/>
<path d="M110.839 8.23152V12.3471H109.916V8.23152H108.656V7.3916H112.182V8.23152H110.839Z" fill="#BC382E"/>
<path d="M113.779 12.4311V7.3916H114.703V12.3471H113.779V12.4311Z" fill="#BC382E"/>
<path d="M118.986 12.4313C117.222 12.4313 116.719 11.2555 116.719 9.99559C116.719 8.39975 117.558 7.30786 119.237 7.30786C119.573 7.30786 119.993 7.30786 120.329 7.47584L120.245 8.31576C119.909 8.23177 119.573 8.14778 119.237 8.14778C118.314 8.14778 117.894 8.81971 117.894 9.8276C117.894 10.9195 118.314 11.5074 119.321 11.5074C119.657 11.5074 119.993 11.4234 120.245 11.3394L120.329 12.1794C119.909 12.3473 119.405 12.4313 118.986 12.4313Z" fill="#BC382E"/>
<path d="M23.693 34.269C23.3572 34.269 23.0213 34.269 22.6855 34.185L22.7694 33.2611C23.0213 33.3451 23.4411 33.4291 23.7769 33.4291C24.2807 33.4291 24.6165 33.2611 24.6165 32.7571C24.6165 31.8332 22.5176 32.2532 22.5176 30.5734C22.5176 29.6495 23.1892 29.0615 24.4486 29.0615C24.7005 29.0615 25.0363 29.0615 25.3721 29.1455L25.2882 29.9854C25.0363 29.9014 24.7005 29.8174 24.3646 29.8174C23.7769 29.8174 23.5251 30.0694 23.5251 30.4054C23.5251 31.3293 25.624 30.9933 25.624 32.5052C25.708 33.5131 24.9523 34.269 23.693 34.269Z" fill="#134B8E"/>
<path d="M27.8906 34.185V29.2295H30.5773V30.0694H28.8142V31.3293H30.4933V32.0012H28.8142V33.3451H30.5773V34.185H27.8906Z" fill="#134B8E"/>
<path d="M35.3625 34.185L34.0192 32.1692V34.185H33.0957V29.2295C33.5155 29.2295 33.9353 29.2295 34.523 29.2295C35.6144 29.2295 36.37 29.6494 36.37 30.6573C36.37 31.4133 35.8663 31.9172 35.1107 32.0852C35.2786 32.2532 35.3626 32.4212 35.5305 32.5891L36.7059 34.269H35.3625V34.185ZM34.2711 29.9014C34.1032 29.9014 34.0192 29.9014 33.8513 29.9014V31.3293C33.9353 31.3293 34.0192 31.3293 34.1871 31.3293C34.7748 31.3293 35.1107 31.0773 35.1107 30.5734C35.1946 30.1534 34.8588 29.9014 34.2711 29.9014Z" fill="#134B8E"/>
<path d="M40.7354 34.185H39.644L37.8809 29.2295H38.8883L39.8119 32.1692C39.8958 32.4212 39.9798 32.7571 40.1477 33.1771C40.2317 32.8411 40.3156 32.5891 40.3996 32.1692L41.4071 29.3135H42.4146L40.7354 34.185Z" fill="#134B8E"/>
<path d="M44.4297 34.185V29.2295H45.3532V34.185H44.4297Z" fill="#134B8E"/>
<path d="M49.8879 34.185C48.1248 34.185 47.6211 33.0091 47.6211 31.7493C47.6211 30.1534 48.4607 29.0615 50.1398 29.0615C50.4756 29.0615 50.8954 29.1455 51.2313 29.2295L51.1473 30.0694C50.8115 29.9854 50.4756 29.9014 50.1398 29.9014C49.2163 29.9014 48.7125 30.5734 48.7125 31.5813C48.7125 32.6732 49.1323 33.2611 50.1398 33.2611C50.4756 33.2611 50.8115 33.1771 51.0633 33.0931L51.1473 33.933C50.7275 34.101 50.3077 34.185 49.8879 34.185Z" fill="#134B8E"/>
<path d="M53.2441 34.185V29.2295H56.0147V30.0694H54.2516V31.3293H55.9308V32.0012H54.2516V33.3451H56.0147V34.185H53.2441Z" fill="#134B8E"/>
<path d="M78.8528 19.6545L77.4255 17.6387V19.6545H76.502V14.699C76.9217 14.699 77.3415 14.699 77.9292 14.699C79.0207 14.699 79.6923 15.1189 79.6923 16.1268C79.6923 16.8828 79.1886 17.3867 78.433 17.4707C78.6009 17.6387 78.6848 17.8067 78.8528 17.9746L80.0282 19.6545H78.8528ZM77.7613 15.4549C77.5934 15.4549 77.5094 15.4549 77.4255 15.4549V16.8828C77.5094 16.8828 77.5934 16.8828 77.7613 16.8828C78.349 16.8828 78.6848 16.5468 78.6848 16.1268C78.6848 15.7069 78.433 15.4549 77.7613 15.4549Z" fill="#134B8E"/>
<path d="M82.2109 19.6545V14.699H84.8976V15.5389H83.1345V16.7988H84.8136V17.5547H83.1345V18.8985H84.8976V19.7385H82.2109V19.6545Z" fill="#134B8E"/>
<path d="M88.3395 19.7385C88.0036 19.7385 87.6678 19.7385 87.332 19.6545L87.4159 18.7306C87.6678 18.8146 88.0876 18.8986 88.4234 18.8986C88.9272 18.8986 89.263 18.7306 89.263 18.2266C89.263 17.3027 87.1641 17.7227 87.1641 16.0429C87.1641 15.1189 87.8357 14.531 89.0951 14.531C89.3469 14.531 89.6828 14.531 90.0186 14.615L89.9346 15.4549C89.6828 15.3709 89.347 15.2869 89.0111 15.2869C88.4234 15.2869 88.1716 15.5389 88.1716 15.8749C88.1716 16.7988 90.2705 16.4628 90.2705 17.9747C90.2705 19.0665 89.5149 19.7385 88.3395 19.7385Z" fill="#134B8E"/>
<path d="M93.8805 17.8906C93.7965 17.8906 93.7125 17.8906 93.5446 17.8906V19.6545H92.6211V14.699C93.0409 14.699 93.4607 14.699 93.9644 14.699C95.2238 14.699 95.8954 15.2869 95.8954 16.2108C95.8115 17.1347 95.0559 17.8906 93.8805 17.8906ZM93.8805 15.4549C93.7965 15.4549 93.6286 15.4549 93.5446 15.4549V17.1347C93.6286 17.1347 93.7125 17.1347 93.7965 17.1347C94.3842 17.1347 94.804 16.7988 94.804 16.2948C94.804 15.7909 94.5521 15.4549 93.8805 15.4549Z" fill="#134B8E"/>
<path d="M97.7422 19.6545V14.699H100.429V15.5389H98.6657V16.7988H100.345V17.5547H98.6657V18.8985H100.429V19.7385H97.7422V19.6545Z" fill="#134B8E"/>
<path d="M104.88 19.7385C103.117 19.7385 102.613 18.5626 102.613 17.3027C102.613 15.7069 103.453 14.615 105.132 14.615C105.468 14.615 105.888 14.699 106.223 14.783L106.139 15.6229C105.804 15.5389 105.468 15.4549 105.132 15.4549C104.208 15.4549 103.789 16.1268 103.789 17.1347C103.789 18.2266 104.208 18.8146 105.216 18.8146C105.552 18.8146 105.888 18.7306 106.139 18.6466L106.223 19.4865C105.804 19.6545 105.3 19.7385 104.88 19.7385Z" fill="#134B8E"/>
<path d="M110.169 15.5389V19.6545H109.246V15.5389H107.986V14.699H111.513V15.5389H110.169Z" fill="#134B8E"/>
<path d="M20.7554 26.9616C20.2517 26.9616 19.8319 26.9616 19.3281 26.9616V21.9221C19.7479 21.9221 20.3356 21.9221 20.9233 21.9221C22.4345 21.9221 23.442 22.5941 23.442 24.3579C23.442 26.0377 22.3506 26.9616 20.7554 26.9616ZM20.9233 22.678C20.6714 22.678 20.5035 22.678 20.3356 22.678V26.0377C20.5035 26.0377 20.6714 26.0377 20.8394 26.0377C21.7629 26.0377 22.4345 25.5337 22.4345 24.3579C22.4345 23.35 22.0148 22.678 20.9233 22.678Z" fill="#BC382E"/>
<path d="M27.556 26.9616C25.9608 26.9616 25.625 26.1217 25.625 25.1978V21.9221H26.6325V25.1138C26.6325 25.7017 26.8004 26.2057 27.64 26.2057C28.3956 26.2057 28.6475 25.8697 28.6475 25.0298V21.9221H29.571V24.9458C29.655 26.2897 28.8993 26.9616 27.556 26.9616Z" fill="#BC382E"/>
<path d="M33.8509 22.762V26.8776H32.9273V22.762H31.668V21.9221H35.1942V22.762H33.8509Z" fill="#BC382E"/>
<path d="M39.1398 25.1138V26.8776H38.2163V25.1138L36.7051 21.9221H37.7126L38.3842 23.35C38.5521 23.6859 38.6361 23.9379 38.7201 24.1899C38.804 23.9379 38.9719 23.6019 39.1398 23.266L39.7275 21.9221H40.735L39.1398 25.1138Z" fill="#BC382E"/>
<path d="M77.1727 26.8776L76.8369 25.8697H74.9898L74.654 26.8776H73.7305L75.3257 21.9221H76.4171L78.1802 26.8776H77.1727ZM76.0813 23.8539C75.9973 23.6019 75.9134 23.35 75.8294 23.098C75.7454 23.35 75.6615 23.6019 75.5775 23.9379L75.1577 25.1978H76.5011L76.0813 23.8539Z" fill="#BC382E"/>
<path d="M80.1113 26.8776V21.9221H81.0349V26.0377H82.63V26.8776H80.1113Z" fill="#BC382E"/>
<path d="M89.5158 26.8776H88.3404L87.5848 24.1059C87.5009 23.7699 87.4169 23.434 87.4169 23.098C87.4169 23.434 87.333 23.7699 87.249 24.1059L86.4934 26.8776H85.4019L84.1426 21.9221H85.1501L85.8217 24.6938C85.9057 25.0298 85.9896 25.3658 85.9896 25.7017C86.0736 25.3658 86.0736 25.0298 86.1576 24.6938L86.9132 21.9221H87.9207L88.6763 24.6938C88.7602 24.9458 88.8442 25.2818 88.8442 25.7017C88.9281 25.3658 88.9281 25.0298 89.0121 24.7778L89.6838 22.0061H90.6073L89.5158 26.8776Z" fill="#BC382E"/>
<path d="M95.6434 26.8776L95.3076 25.8697H93.4605L93.1247 26.8776H92.1172L93.8803 21.9221H94.9717L96.7348 26.8776H95.6434ZM94.552 23.8539C94.468 23.6019 94.384 23.35 94.3001 23.098C94.2161 23.35 94.1322 23.6019 94.0482 23.9379L93.6284 25.1978H95.0557L94.552 23.8539Z" fill="#BC382E"/>
<path d="M100.177 25.1138V26.8776H99.2534V25.1138L97.6582 21.9221H98.6657L99.3373 23.35C99.5053 23.6859 99.5892 23.9379 99.6732 24.1899C99.7571 23.9379 99.9251 23.6019 100.093 23.266L100.681 21.9221H101.688L100.177 25.1138Z" fill="#BC382E"/>
<path d="M104.291 26.9616C103.955 26.9616 103.619 26.9616 103.283 26.8776L103.367 25.9537C103.619 26.0377 104.039 26.1217 104.375 26.1217C104.878 26.1217 105.214 25.9537 105.214 25.4498C105.214 24.5259 103.115 24.9458 103.115 23.266C103.115 22.3421 103.787 21.7542 105.046 21.7542C105.298 21.7542 105.634 21.7542 105.97 21.8381L105.886 22.6781C105.634 22.5941 105.298 22.5101 104.962 22.5101C104.375 22.5101 104.123 22.762 104.123 23.098C104.123 24.0219 106.222 23.686 106.222 25.1978C106.222 26.2897 105.55 26.9616 104.291 26.9616Z" fill="#BC382E"/>
<path d="M12.1064 5.12395V2.94017H9.92353V5.12395H9V0.168457H9.92353V2.18425H12.0225V0.168457H12.946V5.12395H12.1064Z" fill="#134B8E"/>
<path d="M15.7168 5.12395V0.168457H18.4034V1.00837H16.6403V2.26824H18.3195V3.02417H16.6403V4.28404H18.4034V5.12395H15.7168Z" fill="#134B8E"/>
<path d="M23.1047 5.12395L21.6774 3.10816V5.12395H20.7539V0.168457C21.1737 0.168457 21.5935 0.168457 22.1812 0.168457C23.2726 0.168457 24.0282 0.588414 24.0282 1.59631C24.0282 2.35223 23.5245 2.85618 22.7689 2.94017C22.9368 3.10816 23.0208 3.27614 23.1887 3.44412L24.3641 5.12395H23.1047ZM22.0972 0.92438C21.9293 0.92438 21.8454 0.92438 21.6774 0.92438V2.35223C21.7614 2.35223 21.8454 2.35223 22.0133 2.35223C22.601 2.35223 22.9368 2.10026 22.9368 1.59631C22.9368 1.17635 22.6849 0.92438 22.0972 0.92438Z" fill="#134B8E"/>
<path d="M28.1418 5.20795C26.6306 5.20795 25.875 4.28404 25.875 2.68821C25.875 1.00838 26.9664 0.0844727 28.3098 0.0844727C29.6531 0.0844727 30.5766 0.840395 30.5766 2.60422C30.5766 4.20005 29.4852 5.20795 28.1418 5.20795ZM28.2258 0.924387C27.5541 0.924387 26.8825 1.51233 26.8825 2.60422C26.8825 3.61211 27.3023 4.36803 28.2258 4.36803C28.8975 4.36803 29.5691 3.86409 29.5691 2.68821C29.5691 1.51233 29.0654 0.924387 28.2258 0.924387Z" fill="#134B8E"/>
<path d="M32.7598 5.12395V0.168457H33.6833V5.12395H32.7598Z" fill="#134B8E"/>
<path d="M38.2161 5.20795C36.453 5.20795 35.9492 4.03207 35.9492 2.7722C35.9492 1.17636 36.7888 0.0844727 38.4679 0.0844727C38.8038 0.0844727 39.2236 0.168464 39.5594 0.252455L39.4754 1.09237C39.1396 1.00838 38.8038 0.924387 38.4679 0.924387C37.5444 0.924387 37.1246 1.59632 37.1246 2.60422C37.1246 3.6961 37.5444 4.28404 38.5519 4.28404C38.8877 4.28404 39.2236 4.20005 39.4754 4.11606L39.5594 4.95598C39.1396 5.12396 38.6359 5.20795 38.2161 5.20795Z" fill="#134B8E"/>
<path d="M41.0719 70.4694C40.7361 70.4694 40.4002 70.4694 40.0644 70.3854L40.1484 69.4615C40.4002 69.5455 40.82 69.6295 41.1558 69.6295C41.6596 69.6295 41.9954 69.4615 41.9954 68.9576C41.9954 68.0337 39.8965 68.4536 39.8965 66.7738C39.8965 65.8499 40.5681 65.262 41.8275 65.262C42.0794 65.262 42.4152 65.262 42.751 65.346L42.6671 66.1859C42.4152 66.1019 42.0794 66.0179 41.7435 66.0179C41.1558 66.0179 40.904 66.2699 40.904 66.6058C40.904 67.5297 43.0029 67.1938 43.0029 68.7056C43.0029 69.7975 42.3312 70.4694 41.0719 70.4694Z" fill="#BC382E"/>
<path d="M45.2695 70.3852V65.4297H47.9562V66.2696H46.1931V67.5295H47.8722V68.2854H46.1931V69.6293H47.9562V70.4692H45.2695V70.3852Z" fill="#BC382E"/>
<path d="M50.3066 70.3852V65.4297H51.2302V69.5453H52.8254V70.3852H50.3066Z" fill="#BC382E"/>
<path d="M55.8474 66.2696V67.5295H57.4425V68.2854H55.8474V70.3852H54.9238V65.4297H57.6105V66.2696H55.8474Z" fill="#BC382E"/>
<path d="M59.7109 70.3852V65.4297H60.6345V69.5453H62.2297V70.3852H59.7109Z" fill="#BC382E"/>
<path d="M64.2441 70.3852V65.4297H66.9308V66.2696H65.2516V67.5295H66.9308V68.2854H65.2516V69.6293H67.0147V70.4692H64.2441V70.3852Z" fill="#BC382E"/>
<path d="M70.2047 70.4694C69.8689 70.4694 69.533 70.4694 69.1972 70.3854L69.2812 69.4615C69.533 69.5455 69.9528 69.6295 70.2887 69.6295C70.7924 69.6295 71.1282 69.4615 71.1282 68.9576C71.1282 68.0337 69.0293 68.4536 69.0293 66.7738C69.0293 65.8499 69.701 65.262 70.9603 65.262C71.2122 65.262 71.548 65.262 71.8838 65.346L71.7999 66.1859C71.548 66.1019 71.2122 66.0179 70.8764 66.0179C70.2887 66.0179 70.0368 66.2699 70.0368 66.6058C70.0368 67.5297 72.1357 67.1938 72.1357 68.7056C72.2197 69.7975 71.4641 70.4694 70.2047 70.4694Z" fill="#BC382E"/>
<path d="M75.2418 70.4694C74.906 70.4694 74.5701 70.4694 74.2343 70.3854L74.3183 69.4615C74.5702 69.5455 74.9899 69.6295 75.3258 69.6295C75.8295 69.6295 76.1653 69.4615 76.1653 68.9576C76.1653 68.0337 74.0664 68.4536 74.0664 66.7738C74.0664 65.8499 74.7381 65.262 75.9974 65.262C76.2493 65.262 76.5851 65.262 76.921 65.346L76.837 66.1859C76.5851 66.1019 76.2493 66.0179 75.9135 66.0179C75.3258 66.0179 75.0739 66.2699 75.0739 66.6058C75.0739 67.5297 77.1728 67.1938 77.1728 68.7056C77.1728 69.7975 76.4172 70.4694 75.2418 70.4694Z" fill="#BC382E"/>
<path d="M27.7222 41.4081C27.3864 41.4081 26.8826 41.4081 26.2949 41.4081V36.4526C26.7147 36.4526 27.3864 36.4526 27.9741 36.4526C29.0655 36.4526 29.6532 36.8726 29.6532 37.7125C29.6532 38.2165 29.3174 38.6364 28.8976 38.8044C29.4853 38.9724 29.7372 39.3923 29.7372 39.8963C29.7372 40.5682 29.2334 41.4081 27.7222 41.4081ZM27.8062 37.2086C27.6382 37.2086 27.3864 37.2086 27.2185 37.2086V38.4684C27.3024 38.4684 27.4703 38.4684 27.6382 38.4684C28.3099 38.4684 28.6457 38.2165 28.6457 37.7965C28.6457 37.4605 28.3939 37.2086 27.8062 37.2086ZM27.7222 39.2244C27.6382 39.2244 27.3864 39.2244 27.3024 39.2244V40.6522C27.3864 40.6522 27.6382 40.6522 27.8062 40.6522C28.4778 40.6522 28.7297 40.4002 28.7297 39.8963C28.7297 39.3923 28.3099 39.2244 27.7222 39.2244Z" fill="#BC382E"/>
<path d="M34.4387 41.4081L33.0114 39.3083V41.4081H32.0879V36.4526C32.5077 36.4526 32.9275 36.4526 33.5152 36.4526C34.6066 36.4526 35.3622 36.8726 35.3622 37.8805C35.3622 38.6364 34.8585 39.1404 34.1029 39.3083C34.2708 39.4763 34.3547 39.6443 34.5227 39.8123L35.6981 41.4921H34.4387V41.4081ZM33.3473 37.2086C33.1793 37.2086 33.0954 37.2086 33.0114 37.2086V38.6364C33.0954 38.6364 33.1793 38.6364 33.3473 38.6364C33.935 38.6364 34.2708 38.3844 34.2708 37.8805C34.2708 37.4605 34.0189 37.2086 33.3473 37.2086Z" fill="#BC382E"/>
<path d="M40.6512 41.4081L40.3154 40.4002H38.4683L38.1325 41.4081H37.209L38.9721 36.4526H40.0635L41.8266 41.4081H40.6512ZM39.6437 38.3004C39.5598 38.0485 39.4758 37.7965 39.3919 37.5445C39.3079 37.7965 39.224 38.0485 39.14 38.3844L38.7202 39.6443H40.0635L39.6437 38.3004Z" fill="#BC382E"/>
<path d="M45.6045 41.4081H44.5131L42.75 36.4526H43.7575L44.765 39.3923C44.8489 39.6443 44.9329 39.9803 45.1008 40.4002C45.1848 40.0643 45.2687 39.8123 45.4366 39.3923L46.4441 36.5366H47.4516L45.6045 41.4081Z" fill="#BC382E"/>
<path d="M49.2988 41.4081V36.4526H51.9855V37.2926H50.2224V38.5524H51.9015V39.3083H50.2224V40.6522H51.9855V41.4921H49.2988V41.4081Z" fill="#BC382E"/>
<path d="M71.5485 41.4924C71.2126 41.4924 70.8768 41.4924 70.541 41.4084L70.6249 40.4845C70.8768 40.5685 71.2966 40.6525 71.6324 40.6525C72.1362 40.6525 72.472 40.4845 72.472 39.9805C72.472 39.0566 70.373 39.4766 70.373 37.7968C70.373 36.8729 71.0447 36.2849 72.3041 36.2849C72.5559 36.2849 72.8918 36.2849 73.2276 36.3689L73.1436 37.2088C72.8918 37.1248 72.5559 37.0408 72.2201 37.0408C71.6324 37.0408 71.3805 37.2928 71.3805 37.6288C71.3805 38.5527 73.4795 38.2167 73.4795 39.7286C73.5634 40.8204 72.8078 41.4924 71.5485 41.4924Z" fill="#BC382E"/>
<path d="M75.8301 41.4081V36.4526H78.5167V37.2926H76.7536V38.5524H78.4328V39.3083H76.7536V40.6522H78.5167V41.4921H75.8301V41.4081Z" fill="#BC382E"/>
<path d="M85.6527 41.4081L85.3169 39.0564C85.2329 38.5524 85.2329 38.2165 85.149 37.8805C85.065 38.2165 84.981 38.5524 84.8971 38.9724L84.1415 41.4921H83.2179L82.4623 39.2244C82.2944 38.8044 82.2104 38.3844 82.1265 37.9645C82.1265 38.3844 82.0425 38.8044 81.9586 39.2244L81.7067 41.4921H80.6992L81.4548 36.5366H82.5463L83.3858 39.0564C83.4698 39.3923 83.5538 39.7283 83.6377 40.0643C83.7217 39.6443 83.8056 39.3923 83.8896 39.0564L84.7292 36.4526H85.8206L86.5762 41.4081H85.6527Z" fill="#BC382E"/>
<path d="M90.0191 39.6443C89.9352 39.6443 89.8512 39.6443 89.6833 39.6443V41.4081H88.7598V36.4526C89.1796 36.4526 89.5993 36.4526 90.1031 36.4526C91.3624 36.4526 92.0341 37.0406 92.0341 37.9645C91.9501 38.8884 91.1945 39.6443 90.0191 39.6443ZM90.0191 37.2086C89.9352 37.2086 89.7673 37.2086 89.6833 37.2086V38.8884C89.7673 38.8884 89.8512 38.8884 89.9352 38.8884C90.5229 38.8884 90.9427 38.5524 90.9427 38.0485C90.9427 37.4605 90.6908 37.2086 90.0191 37.2086Z" fill="#BC382E"/>
<path d="M93.9648 41.4081V36.4526H96.6515V37.2926H94.8884V38.5524H96.5675V39.3083H94.8884V40.6522H96.6515V41.4921H93.9648V41.4081Z" fill="#BC382E"/>
<path d="M101.437 41.4081L100.093 39.3083V41.4081H99.1699V36.4526C99.5897 36.4526 100.009 36.4526 100.597 36.4526C101.689 36.4526 102.36 36.8726 102.36 37.8805C102.36 38.6364 101.857 39.1404 101.101 39.3083C101.269 39.4763 101.353 39.6443 101.521 39.8123L102.696 41.4921H101.437V41.4081ZM100.429 37.2086C100.261 37.2086 100.177 37.2086 100.093 37.2086V38.6364C100.177 38.6364 100.261 38.6364 100.429 38.6364C101.017 38.6364 101.353 38.3844 101.353 37.8805C101.353 37.4605 101.017 37.2086 100.429 37.2086Z" fill="#BC382E"/>
<path d="M32.0891 48.6313L30.7458 46.5315V48.6313H29.8223V43.6758C30.2421 43.6758 30.6618 43.6758 31.2495 43.6758C32.341 43.6758 33.0126 44.0957 33.0126 45.1036C33.0126 45.8596 32.5089 46.3635 31.7533 46.4475C31.9212 46.6155 32.0052 46.7835 32.1731 46.9514L33.3485 48.6313H32.0891ZM31.0816 44.4317C30.9137 44.4317 30.8298 44.4317 30.7458 44.4317V45.8596C30.8298 45.8596 30.9137 45.8596 31.0816 45.8596C31.6693 45.8596 32.0052 45.5236 32.0052 45.1036C31.9212 44.6837 31.6693 44.4317 31.0816 44.4317Z" fill="#134B8E"/>
<path d="M35.3633 48.6313V43.6758H38.0499V44.5157H36.2868V45.7756H37.966V46.5315H36.2868V47.8754H38.0499V48.7153H35.3633V48.6313Z" fill="#134B8E"/>
<path d="M43.4227 48.6313L43.0869 47.6234H41.2398L40.904 48.6313H39.9805L41.7436 43.6758H42.835L44.5981 48.6313H43.4227ZM42.4152 45.6076C42.3313 45.3556 42.2473 45.1036 42.1634 44.8517C42.0794 45.1036 41.9954 45.4396 41.9115 45.6916L41.4917 46.9514H42.919L42.4152 45.6076Z" fill="#134B8E"/>
<path d="M47.7886 48.7155C47.2849 48.7155 46.8651 48.7155 46.4453 48.7155V43.76C46.8651 43.76 47.4528 43.76 48.0405 43.76C49.5517 43.76 50.5592 44.4319 50.5592 46.1958C50.4753 47.7916 49.3838 48.7155 47.7886 48.7155ZM47.8726 44.4319C47.6207 44.4319 47.4528 44.4319 47.2849 44.4319V47.7916C47.4528 47.7916 47.6207 47.7916 47.7886 47.7916C48.7122 47.7916 49.3838 47.2876 49.3838 46.1118C49.4678 45.1039 49.048 44.4319 47.8726 44.4319Z" fill="#134B8E"/>
<path d="M54.3371 46.8675V48.6313H53.4136V46.8675L51.8184 43.6758H52.8258L53.4975 45.1036C53.6654 45.4396 53.7494 45.6916 53.8333 45.9435C53.9173 45.6916 54.0852 45.3556 54.2531 45.0196L54.8408 43.6758H55.8483L54.3371 46.8675Z" fill="#134B8E"/>
<path d="M70.1207 48.7155C69.6169 48.7155 69.1971 48.7155 68.7773 48.7155V43.76C69.1971 43.76 69.7848 43.76 70.3725 43.76C71.8838 43.76 72.8913 44.4319 72.8913 46.1958C72.8913 47.7916 71.7998 48.7155 70.1207 48.7155ZM70.2886 44.4319C70.0367 44.4319 69.8688 44.4319 69.7009 44.4319V47.7916C69.8688 47.7916 70.0367 47.7916 70.2046 47.7916C71.1282 47.7916 71.7998 47.2876 71.7998 46.1118C71.8838 45.1039 71.464 44.4319 70.2886 44.4319Z" fill="#134B8E"/>
<path d="M75.0742 48.6313V43.6758H77.7609V44.5157H75.9978V45.7756H77.6769V46.5315H75.9978V47.8754H77.7609V48.7153H75.0742V48.6313Z" fill="#134B8E"/>
<path d="M81.1208 44.5157V45.7756H82.716V46.5315H81.1208V48.6313H80.1973V43.6758H82.8839V44.5157H81.1208Z" fill="#134B8E"/>
<path d="M84.8984 48.6313V43.6758H87.5851V44.5157H85.822V45.7756H87.5011V46.5315H85.822V47.8754H87.5851V48.7153H84.8984V48.6313Z" fill="#134B8E"/>
<path d="M92.7901 48.6315L91.3628 46.1118C91.111 45.7758 90.9431 45.3559 90.8591 45.0199C90.8591 45.4399 90.9431 46.1958 90.9431 46.7837V48.5475H90.0195V43.592H91.2789L92.6222 45.9438C92.8741 46.3638 93.042 46.7837 93.2099 47.1197C93.2099 46.6157 93.1259 45.7758 93.1259 45.1039V43.592H94.0495V48.5475H92.7901V48.6315Z" fill="#134B8E"/>
<path d="M97.9117 48.7155C97.4079 48.7155 96.9881 48.7155 96.5684 48.7155V43.76C96.9881 43.76 97.5758 43.76 98.1635 43.76C99.6748 43.76 100.682 44.4319 100.682 46.1958C100.682 47.7916 99.5069 48.7155 97.9117 48.7155ZM98.0796 44.4319C97.8277 44.4319 97.6598 44.4319 97.4919 44.4319V47.7916C97.6598 47.7916 97.8277 47.7916 97.9956 47.7916C98.9192 47.7916 99.5908 47.2876 99.5908 46.1118C99.5908 45.1039 99.171 44.4319 98.0796 44.4319Z" fill="#134B8E"/>
<path d="M34.6907 56.0226C32.9276 56.0226 32.4238 54.8468 32.4238 53.5869C32.4238 51.9911 33.2634 50.8992 34.9425 50.8992C35.2784 50.8992 35.6982 50.9832 36.034 51.0672L35.95 51.9071C35.6142 51.8231 35.2784 51.7391 34.9425 51.7391C34.019 51.7391 33.5992 52.411 33.5992 53.4189C33.5992 54.5108 34.019 55.0987 35.0265 55.0987C35.3623 55.0987 35.6982 55.0148 35.95 54.9308L36.034 55.7707C35.5302 55.9387 35.1105 56.0226 34.6907 56.0226Z" fill="#BC382E"/>
<path d="M40.0657 56.0226C38.5544 56.0226 37.7988 55.0147 37.7988 53.5029C37.7988 51.8231 38.8903 50.8992 40.2336 50.8992C41.5769 50.8992 42.5004 51.6551 42.5004 53.4189C42.5004 55.0147 41.409 56.0226 40.0657 56.0226ZM40.1496 51.7391C39.478 51.7391 38.8063 52.327 38.8063 53.4189C38.8063 54.5108 39.2261 55.1827 40.1496 55.1827C40.8213 55.1827 41.493 54.6788 41.493 53.5029C41.493 52.327 40.9892 51.7391 40.1496 51.7391Z" fill="#BC382E"/>
<path d="M49.2152 55.9387L48.8794 53.5869C48.7954 53.083 48.7954 52.747 48.7115 52.411C48.6275 52.747 48.5435 53.083 48.4596 53.5029L47.704 56.0226H46.7804L45.9409 53.5869C45.773 53.1669 45.689 52.747 45.605 52.327C45.605 52.747 45.5211 53.1669 45.4371 53.5869L45.1852 55.8547H44.2617L45.0173 50.8992H46.1088L46.9484 53.4189C47.0323 53.7549 47.2002 54.0908 47.2002 54.4268C47.2842 54.0069 47.3681 53.7549 47.4521 53.4189L48.2917 50.8152H49.3831L50.1387 55.7707H49.2152V55.9387Z" fill="#BC382E"/>
<path d="M57.1918 55.9389L56.8559 53.5871C56.772 53.0832 56.772 52.7472 56.688 52.4113C56.6041 52.7472 56.5201 53.0832 56.4361 53.5031L55.6805 56.0229H54.757L54.0014 53.7551C53.8335 53.3352 53.7495 52.9152 53.6656 52.4952C53.6656 52.9152 53.5816 53.3352 53.4976 53.7551L53.2458 56.0229H52.2383L52.9939 51.0674H54.0853L54.9249 53.5871C55.0089 53.9231 55.0928 54.2591 55.1768 54.595C55.2607 54.1751 55.3447 53.9231 55.4287 53.5871L56.2682 50.9834H57.3597L58.1153 55.9389H57.1918Z" fill="#BC382E"/>
<path d="M60.3809 55.9389V50.9834H61.3044V55.9389H60.3809Z" fill="#BC382E"/>
<path d="M65.5872 51.7391V55.9387H64.6637V51.7391H63.4043V50.8992H66.9305V51.7391H65.5872Z" fill="#BC382E"/>
<path d="M73.3109 55.9389L72.9751 53.5871C72.8911 53.0832 72.8911 52.7472 72.8072 52.4113C72.7232 52.7472 72.6392 53.0832 72.5553 53.5031L71.7997 56.0229H70.8761L70.1205 53.7551C69.9526 53.3352 69.8687 52.9152 69.7847 52.4952C69.7847 52.9152 69.7007 53.3352 69.6168 53.7551L69.3649 56.0229H68.3574L69.113 51.0674H70.2045L71.0441 53.5871C71.128 53.9231 71.212 54.2591 71.2959 54.595C71.3799 54.1751 71.4638 53.9231 71.5478 53.5871L72.3874 50.9834H73.4788L74.2344 55.9389H73.3109Z" fill="#BC382E"/>
<path d="M76.418 55.9389V50.9834H79.1046V51.8233H77.3415V52.9992H79.0206V53.7551H77.3415V55.099H79.1046V55.9389H76.418Z" fill="#BC382E"/>
<path d="M84.3097 55.9387L82.8824 53.4189C82.6305 53.0829 82.4626 52.663 82.3786 52.327C82.3786 52.747 82.4626 53.5029 82.4626 54.0908V55.8547H81.5391V50.8992H82.7984L84.1417 53.2509C84.3936 53.6709 84.5615 54.0068 84.7294 54.4268C84.7294 53.9229 84.6455 52.999 84.6455 52.411V50.8992H85.569V55.8547H84.3097V55.9387Z" fill="#BC382E"/>
<path d="M89.7669 51.7391V55.9387H88.8433V51.7391H87.584V50.8992H91.1102V51.7391H89.7669Z" fill="#BC382E"/>
<path d="M38.134 63.246C36.3709 63.246 35.8672 62.0702 35.8672 60.8103C35.8672 59.2145 36.7068 58.1226 38.3859 58.1226C38.7217 58.1226 39.1415 58.1226 39.4774 58.2905L39.3934 59.1305C39.0576 59.0465 38.7217 58.9625 38.3859 58.9625C37.4624 58.9625 37.0426 59.6344 37.0426 60.6423C37.0426 61.7342 37.4624 62.3221 38.4699 62.3221C38.8057 62.3221 39.1415 62.2381 39.3934 62.1541L39.4774 62.9941C39.0576 63.162 38.6378 63.246 38.134 63.246Z" fill="#134B8E"/>
<path d="M43.5911 63.246C42.0798 63.246 41.3242 62.3221 41.3242 60.7263C41.3242 59.0465 42.4157 58.1226 43.759 58.1226C45.1023 58.1226 46.0258 58.8785 46.0258 60.6423C46.0258 62.2381 44.9344 63.246 43.5911 63.246ZM43.675 58.9625C43.0034 58.9625 42.3317 59.4664 42.3317 60.6423C42.3317 61.7342 42.7515 62.4061 43.675 62.4061C44.3467 62.4061 45.0183 61.9022 45.0183 60.7263C44.9344 59.5504 44.5146 58.9625 43.675 58.9625Z" fill="#134B8E"/>
<path d="M49.8041 63.2458C48.2089 63.2458 47.873 62.4059 47.873 61.482V58.2063H48.7966V61.398C48.7966 61.9859 48.9645 62.4899 49.8041 62.4899C50.5597 62.4899 50.8116 62.1539 50.8116 61.314V58.2063H51.7351V61.23C51.903 62.5739 51.1474 63.2458 49.8041 63.2458Z" fill="#134B8E"/>
<path d="M56.6887 63.1618L55.3454 61.146V63.1618H54.3379V58.2063C54.7577 58.2063 55.1775 58.2063 55.7652 58.2063C56.8566 58.2063 57.5283 58.6263 57.5283 59.6342C57.5283 60.3901 57.0245 60.894 56.2689 60.978C56.4368 61.146 56.5208 61.314 56.6887 61.566L57.8641 63.2458H56.6887V63.1618ZM55.6812 58.9622C55.5133 58.9622 55.4293 58.9622 55.3454 58.9622V60.3901C55.4293 60.3901 55.5133 60.3901 55.6812 60.3901C56.2689 60.3901 56.6047 60.0541 56.6047 59.6342C56.6047 59.2142 56.2689 58.9622 55.6812 58.9622Z" fill="#134B8E"/>
<path d="M63.0692 63.1618L62.7334 62.1539H60.8863L60.5505 63.1618H59.627L61.3901 58.2063H62.4815L64.2446 63.1618H63.0692ZM61.9778 60.0541C61.8938 59.8021 61.8098 59.5502 61.7259 59.2982C61.6419 59.5502 61.558 59.8861 61.474 60.1381L61.1382 61.398H62.4815L61.9778 60.0541Z" fill="#134B8E"/>
<path d="M69.6178 59.2144C69.1981 59.0465 68.7783 58.9625 68.2745 58.9625C67.267 58.9625 66.5954 59.5504 66.5954 60.7263C66.5954 61.8182 67.1831 62.4061 68.1906 62.4061C68.4424 62.4061 68.6104 62.4061 68.8622 62.3221V60.5583H69.7858V62.9101C69.282 63.0781 68.6943 63.246 68.1066 63.246C66.5114 63.246 65.5879 62.3221 65.5879 60.8103C65.5879 59.2145 66.6793 58.1226 68.3585 58.1226C68.8622 58.1226 69.366 58.2066 69.7858 58.2905L69.6178 59.2144Z" fill="#134B8E"/>
<path d="M72.2207 63.1618V58.2063H74.9073V59.0462H73.1442V60.2221H74.8234V60.978H73.1442V62.3219H74.9073V63.1618H72.2207Z" fill="#134B8E"/>
<path d="M79.1887 63.246C77.6775 63.246 76.9219 62.3221 76.9219 60.7263C76.9219 59.0465 78.0133 58.1226 79.3566 58.1226C80.7 58.1226 81.6235 58.8785 81.6235 60.6423C81.6235 62.2381 80.532 63.246 79.1887 63.246ZM79.2727 58.9625C78.601 58.9625 77.9294 59.4664 77.9294 60.6423C77.9294 61.7342 78.3491 62.4061 79.2727 62.4061C79.9443 62.4061 80.616 61.9022 80.616 60.7263C80.616 59.5504 80.1123 58.9625 79.2727 58.9625Z" fill="#134B8E"/>
<path d="M85.3998 63.2458C83.8046 63.2458 83.4688 62.4059 83.4688 61.482V58.2063H84.3923V61.398C84.3923 61.9859 84.6442 62.4899 85.3998 62.4899C86.1554 62.4899 86.4073 62.1539 86.4073 61.314V58.2063H87.3308V61.23C87.4148 62.5739 86.6591 63.2458 85.3998 63.2458Z" fill="#134B8E"/>
<path d="M90.4391 63.246C90.1032 63.246 89.7674 63.246 89.4316 63.162L89.5155 62.2381C89.7674 62.3221 90.1872 62.4061 90.523 62.4061C91.0268 62.4061 91.3626 62.2381 91.3626 61.7342C91.3626 60.8103 89.2637 61.2303 89.2637 59.5504C89.2637 58.6265 89.9353 58.0386 91.1947 58.0386C91.4466 58.0386 91.7824 58.0386 92.1182 58.1226L92.0343 58.9625C91.7824 58.8785 91.4466 58.7945 91.1107 58.7945C90.523 58.7945 90.2712 59.0465 90.2712 59.3824C90.2712 60.3063 92.3701 59.9704 92.3701 61.4822C92.3701 62.5741 91.6145 63.246 90.4391 63.246Z" fill="#134B8E"/>
<path d="M15.4639 12.4311V10.2473H13.3649V12.4311H12.4414V7.3916H13.3649V9.4074H15.4639V7.3916H16.3874V12.3471H15.4639V12.4311Z" fill="#BC382E"/>
<path d="M20.5852 12.5151C19.074 12.5151 18.3184 11.5072 18.3184 9.99534C18.3184 8.31551 19.4098 7.3916 20.7531 7.3916C22.0964 7.3916 23.02 8.14752 23.02 9.91134C23.02 11.5072 21.9285 12.5151 20.5852 12.5151ZM20.6692 8.23152C19.9975 8.23152 19.3258 8.81946 19.3258 9.91134C19.3258 11.0032 19.7456 11.6752 20.6692 11.6752C21.3408 11.6752 22.0125 11.1712 22.0125 9.99534C22.0125 8.81946 21.5087 8.23152 20.6692 8.23152Z" fill="#BC382E"/>
<path d="M27.8897 12.4311L26.4624 9.91134C26.2106 9.57538 26.0426 9.15542 25.9587 8.81946C25.9587 9.23941 25.9587 9.99534 25.9587 10.5833V12.3471H25.0352V7.3916H26.2945L27.7218 9.74336C27.9737 10.1633 28.1416 10.4993 28.3095 10.9192C28.3095 10.4153 28.2255 9.57538 28.2255 8.90345V7.3916H29.1491V12.3471H27.8897V12.4311Z" fill="#BC382E"/>
<path d="M33.4329 12.5151C31.9216 12.5151 31.166 11.5072 31.166 9.99534C31.166 8.31551 32.2575 7.3916 33.6008 7.3916C34.9441 7.3916 35.8676 8.14752 35.8676 9.91134C35.8676 11.5072 34.7762 12.5151 33.4329 12.5151ZM33.5168 8.23152C32.8452 8.23152 32.1735 8.81946 32.1735 9.91134C32.1735 11.0032 32.5933 11.6752 33.5168 11.6752C34.1885 11.6752 34.8601 11.1712 34.8601 9.99534C34.8601 8.81946 34.3564 8.23152 33.5168 8.23152Z" fill="#BC382E"/>
<path d="M40.3157 12.4311L38.9724 10.4153V12.4311H38.0488V7.3916C38.4686 7.3916 38.8884 7.3916 39.4761 7.3916C40.5675 7.3916 41.3232 7.81156 41.3232 8.81946C41.3232 9.57538 40.8194 10.0793 40.0638 10.1633C40.2317 10.3313 40.3157 10.4993 40.4836 10.7513L41.659 12.4311H40.3157ZM39.2242 8.14752C39.0563 8.14752 38.9724 8.14752 38.8884 8.14752V9.57538C38.9724 9.57538 39.0563 9.57538 39.2242 9.57538C39.8119 9.57538 40.1478 9.23941 40.1478 8.81946C40.1478 8.3995 39.8119 8.14752 39.2242 8.14752Z" fill="#BC382E"/>
<path d="M46.5282 12.4311L46.1924 11.4232H44.3453L44.0095 12.4311H43.0859L44.849 7.47559H45.9405L47.7036 12.4311H46.5282ZM45.5207 9.3234C45.4367 9.07142 45.3528 8.81945 45.2688 8.56747C45.1849 8.81945 45.1009 9.07142 45.017 9.40739L44.5972 10.6673H45.9405L45.5207 9.3234Z" fill="#BC382E"/>
<path d="M50.8941 12.4311C50.5582 12.4311 50.0545 12.4311 49.4668 12.4311V7.47559C49.8866 7.47559 50.5582 7.47559 51.1459 7.47559C52.2374 7.47559 52.8251 7.89554 52.8251 8.73546C52.8251 9.23941 52.4893 9.65936 52.0695 9.82735C52.6572 9.91134 52.909 10.4153 52.909 10.9192C52.909 11.5912 52.4053 12.4311 50.8941 12.4311ZM50.978 8.14752C50.8101 8.14752 50.5582 8.14752 50.3903 8.14752V9.40739C50.4743 9.40739 50.6422 9.40739 50.8101 9.40739C51.4818 9.40739 51.8176 9.15541 51.8176 8.73546C51.8176 8.39949 51.5657 8.14752 50.978 8.14752ZM50.8101 10.2473C50.7262 10.2473 50.4743 10.2473 50.3903 10.2473V11.6752C50.4743 11.6752 50.7262 11.6752 50.8941 11.6752C51.4818 11.6752 51.8176 11.4232 51.8176 10.9192C51.9016 10.4153 51.4818 10.2473 50.8101 10.2473Z" fill="#BC382E"/>
<path d="M54.9238 12.4311V7.3916H55.8474V11.5072H57.4425V12.3471H54.9238V12.4311Z" fill="#BC382E"/>
<path d="M59.291 12.4311V7.3916H61.9776V8.23152H60.2145V9.49139H61.8937V10.2473H60.2145V11.5912H61.9776V12.4311H59.291Z" fill="#BC382E"/>
<path d="M43.7578 77.6926V72.7371H44.6813V77.6926H43.7578Z" fill="#134B8E"/>
<path d="M50.3077 77.6926L48.8804 75.1728C48.6286 74.8369 48.4606 74.4169 48.3767 74.0809C48.3767 74.5009 48.4606 75.2568 48.4606 75.9287V77.6926H47.5371V72.7371H48.7965L50.1398 75.0888C50.3917 75.5088 50.5596 75.8447 50.7275 76.2647C50.7275 75.7608 50.6435 74.9208 50.6435 74.2489V72.7371H51.5671V77.6926H50.3077Z" fill="#134B8E"/>
<path d="M55.513 73.4927V77.6083H54.5894V73.4927H53.3301V72.6528H56.8563V73.4927H55.513Z" fill="#134B8E"/>
<path d="M58.7871 77.6926V72.7371H61.4737V73.577H59.7106V74.8368H61.3898V75.5928H59.7106V76.9366H61.4737V77.7766H58.7871V77.6926Z" fill="#134B8E"/>
<path d="M67.5182 73.7447C67.0984 73.5767 66.6787 73.4927 66.1749 73.4927C65.1674 73.4927 64.4958 74.0807 64.4958 75.2566C64.4958 76.3484 65.0835 76.9364 66.091 76.9364C66.3428 76.9364 66.5107 76.9364 66.7626 76.8524V75.0886H67.6861V77.4403C67.1824 77.6083 66.5947 77.7763 66.007 77.7763C64.4118 77.7763 63.4883 76.8524 63.4883 75.3406C63.4883 73.7447 64.5797 72.6528 66.2589 72.6528C66.7626 72.6528 67.2664 72.7368 67.6861 72.9048L67.5182 73.7447Z" fill="#134B8E"/>
<path d="M72.4719 77.6926L71.1286 75.6768V77.6926H70.2051V72.7371C70.6249 72.7371 71.0446 72.7371 71.6323 72.7371C72.7238 72.7371 73.3955 73.157 73.3955 74.1649C73.3955 74.9208 72.8917 75.4248 72.1361 75.5088C72.304 75.6768 72.388 75.8447 72.5559 76.0967L73.7313 77.7766H72.4719V77.6926ZM71.4644 73.409C71.2965 73.409 71.2126 73.409 71.0447 73.409V74.8368C71.1286 74.8368 71.2126 74.8368 71.3805 74.8368C71.9682 74.8368 72.304 74.5009 72.304 74.0809C72.304 73.661 72.0521 73.409 71.4644 73.409Z" fill="#134B8E"/>
<path d="M75.6621 77.6926V72.7371H76.5856V77.6926H75.6621Z" fill="#134B8E"/>
<path d="M80.7005 73.4927V77.6083H79.7769V73.4927H78.5176V72.6528H82.0438V73.4927H80.7005Z" fill="#134B8E"/>
<path d="M85.6535 75.9287V77.6926H84.7299V75.9287L83.1348 72.7371H84.1423L84.8139 74.1649C84.9818 74.4169 85.0658 74.7529 85.1497 75.0048C85.2337 74.7529 85.4016 74.4169 85.5695 74.0809L86.1572 72.7371H87.1647L85.6535 75.9287Z" fill="#134B8E"/>
<path d="M48.796 84.9157H47.7045L45.9414 79.9602H46.9489L47.8724 82.8999C47.9564 83.1519 48.0403 83.4879 48.2083 83.9078C48.2922 83.5718 48.3762 83.3199 48.5441 82.8999L49.5516 80.0442H50.5591L48.796 84.9157Z" fill="#BC382E"/>
<path d="M55.0086 84.9157L54.6728 83.9078H52.8257L52.4899 84.9157H51.4824L53.2455 79.9602H54.337L56.1001 84.9157H55.0086ZM54.0011 81.808C53.9172 81.556 53.8332 81.3041 53.7493 81.0521C53.6653 81.3041 53.5814 81.556 53.4974 81.892L53.0776 83.1519H54.5049L54.0011 81.808Z" fill="#BC382E"/>
<path d="M57.7793 84.9157V79.9602H58.7028V84.0758H60.298V84.9157H57.7793Z" fill="#BC382E"/>
<path d="M62.4805 84.9157V79.9602H63.404V84.9157H62.4805Z" fill="#BC382E"/>
<path d="M68.8602 84.9157L68.5244 83.9078H66.6773L66.3415 84.9157H65.418L67.1811 79.9602H68.2725L70.0356 84.9157H68.8602ZM67.8527 81.808C67.7688 81.556 67.6848 81.3041 67.6009 81.0521C67.5169 81.3041 67.4329 81.556 67.349 81.892L66.9292 83.1519H68.2725L67.8527 81.808Z" fill="#BC382E"/>
<path d="M74.4034 84.9157L72.9761 82.396C72.7242 82.06 72.5563 81.64 72.4724 81.3041C72.4724 81.724 72.4724 82.48 72.4724 83.0679V84.8317H71.5488V79.8762H72.8082L74.1515 82.228C74.4034 82.6479 74.5713 82.9839 74.7392 83.4039C74.7392 82.8999 74.6552 81.976 74.6552 81.3881V79.8762H75.5788V84.8317H74.4034V84.9157Z" fill="#BC382E"/>
<path d="M79.6926 80.8001V84.9997H78.6851V80.8001H77.4258V79.9602H80.952V80.8001H79.6926Z" fill="#BC382E"/>
<path d="M17.2281 19.654C16.7243 19.654 16.3046 19.654 15.8848 19.654V14.6985C16.3046 14.6985 16.8923 14.6985 17.48 14.6985C18.9912 14.6985 19.9987 15.3704 19.9987 17.1342C19.9987 18.8141 18.8233 19.654 17.2281 19.654ZM17.396 15.4544C17.1441 15.4544 16.9762 15.4544 16.8083 15.4544V18.8141C16.9762 18.8141 17.1441 18.8141 17.312 18.8141C18.2356 18.8141 18.9072 18.3101 18.9072 17.1342C18.9072 16.1263 18.5714 15.4544 17.396 15.4544Z" fill="#134B8E"/>
<path d="M21.8457 19.654V14.6985H24.5323V15.5384H22.7692V16.7983H24.4484V17.5542H22.7692V18.8981H24.5323V19.738H21.8457V19.654Z" fill="#134B8E"/>
<path d="M28.0601 19.654C27.5563 19.654 27.1366 19.654 26.6328 19.654V14.6985C27.0526 14.6985 27.6403 14.6985 28.228 14.6985C29.7392 14.6985 30.7467 15.3704 30.7467 17.1342C30.8307 18.8141 29.6553 19.654 28.0601 19.654ZM28.228 15.4544C27.9761 15.4544 27.8082 15.4544 27.6403 15.4544V18.8141C27.8082 18.8141 27.9761 18.8141 28.144 18.8141C29.0676 18.8141 29.7392 18.3101 29.7392 17.1342C29.7392 16.1263 29.3194 15.4544 28.228 15.4544Z" fill="#134B8E"/>
<path d="M32.8438 19.654V14.6985H33.7673V19.654H32.8438Z" fill="#134B8E"/>
<path d="M38.384 19.738C36.6209 19.738 36.1172 18.5621 36.1172 17.3022C36.1172 15.7064 36.9568 14.6145 38.6359 14.6145C38.9717 14.6145 39.3915 14.6985 39.7274 14.7825L39.6434 15.6224C39.3076 15.5384 38.9717 15.4544 38.6359 15.4544C37.7124 15.4544 37.2926 16.1263 37.2926 17.1342C37.2926 18.2261 37.7124 18.8141 38.7199 18.8141C39.0557 18.8141 39.3915 18.7301 39.7274 18.6461L39.8113 19.486C39.3076 19.654 38.8038 19.738 38.384 19.738Z" fill="#134B8E"/>
<path d="M44.7665 19.654L44.4306 18.6461H42.5836L42.2477 19.654H41.3242L43.0873 14.6985H44.1788L45.9419 19.654H44.7665ZM43.675 16.5463C43.5911 16.2943 43.5071 16.0424 43.4232 15.7904C43.3392 16.0424 43.2552 16.2943 43.1713 16.6303L42.7515 17.8902H44.0948L43.675 16.5463Z" fill="#134B8E"/>
<path d="M48.9641 15.5384V19.654H48.0406V15.5384H46.7812V14.6985H50.3075V15.5384H48.9641Z" fill="#134B8E"/>
<path d="M52.2383 19.654V14.6985H54.9249V15.5384H53.1618V16.7983H54.841V17.5542H53.1618V18.8981H54.9249V19.738H52.2383V19.654Z" fill="#134B8E"/>
<path d="M58.5347 19.654C58.031 19.654 57.6112 19.654 57.1914 19.654V14.6985C57.6112 14.6985 58.1989 14.6985 58.7866 14.6985C60.2978 14.6985 61.3053 15.3704 61.3053 17.1342C61.3053 18.8141 60.1299 19.654 58.5347 19.654ZM58.7026 15.4544C58.4508 15.4544 58.2829 15.4544 58.1149 15.4544V18.8141C58.2829 18.8141 58.4508 18.8141 58.6187 18.8141C59.5422 18.8141 60.2139 18.3101 60.2139 17.1342C60.2139 16.1263 59.7941 15.4544 58.7026 15.4544Z" fill="#134B8E"/>
<path d="M84.7308 5.12371L84.395 2.77195C84.311 2.26801 84.311 1.93204 84.2271 1.59607C84.1431 1.93204 84.0591 2.26801 83.9752 2.68796L83.2196 5.2077H82.296L81.5404 2.93994C81.3725 2.51998 81.2886 2.10002 81.2046 1.68007C81.2046 2.10002 81.1206 2.51998 81.0367 2.93994L80.7009 5.12371H79.6934L80.449 0.16822H81.5404L82.38 2.68796C82.464 3.02393 82.5479 3.35989 82.6319 3.69586C82.7158 3.2759 82.7998 3.02393 82.8837 2.68796L83.7233 0.0842285H84.8148L85.7383 5.12371H84.7308Z" fill="#134B8E"/>
<path d="M87.9219 5.12371V0.168213H88.8454V5.12371H87.9219Z" fill="#134B8E"/>
<path d="M92.2027 5.20771C91.8669 5.20771 91.5311 5.20771 91.1953 5.12372L91.2792 4.19981C91.5311 4.28381 91.9509 4.3678 92.2867 4.3678C92.7905 4.3678 93.1263 4.19981 93.1263 3.69587C93.1263 2.77196 91.0273 3.19192 91.0273 1.51209C91.0273 0.588184 91.699 0.000244141 92.8744 0.000244141C93.1263 0.000244141 93.4621 0.000244141 93.7979 0.0842356L93.714 0.92415C93.5461 0.92415 93.2102 0.92415 92.9584 0.92415C92.3707 0.92415 92.1188 1.17612 92.1188 1.51209C92.1188 2.436 94.2177 2.10003 94.2177 3.61187C94.1338 4.53578 93.4621 5.20771 92.2027 5.20771Z" fill="#134B8E"/>
<path d="M97.3238 5.20771C96.988 5.20771 96.6522 5.20771 96.3163 5.12372L96.4003 4.19981C96.6522 4.28381 97.072 4.3678 97.4078 4.3678C97.9115 4.3678 98.2474 4.19981 98.2474 3.69587C98.2474 2.77196 96.1484 3.19192 96.1484 1.51209C96.1484 0.588184 96.8201 0.000244141 98.0795 0.000244141C98.3313 0.000244141 98.6672 0.000244141 99.003 0.0842356L98.919 0.92415C98.6672 0.92415 98.3313 0.92415 97.9955 0.92415C97.4078 0.92415 97.1559 1.17612 97.1559 1.51209C97.1559 2.436 99.2549 2.10003 99.2549 3.61187C99.2549 4.53578 98.5832 5.20771 97.3238 5.20771Z" fill="#134B8E"/>
<path d="M101.521 5.12371V0.168213H102.445V5.12371H101.521Z" fill="#134B8E"/>
<path d="M106.98 5.2077C105.469 5.2077 104.713 4.2838 104.713 2.68796C104.713 1.00813 105.804 0.0842285 107.148 0.0842285C108.491 0.0842285 109.415 0.840151 109.415 2.60397C109.415 4.19981 108.323 5.2077 106.98 5.2077ZM107.064 0.924143C106.392 0.924143 105.72 1.51208 105.72 2.60397C105.72 3.69586 106.14 4.36779 107.064 4.36779C107.735 4.36779 108.407 3.86384 108.407 2.68796C108.407 1.59607 107.903 0.924143 107.064 0.924143Z" fill="#134B8E"/>
<path d="M114.368 5.12371L112.941 2.60396C112.689 2.18401 112.521 1.84804 112.437 1.51208C112.437 1.93203 112.437 2.68796 112.437 3.2759V5.12371H111.514V0.168213H112.773L114.2 2.51997C114.452 2.93993 114.62 3.2759 114.788 3.69585C114.788 3.1919 114.704 2.35199 114.704 1.68006V0.168213H115.628V5.12371H114.368Z" fill="#134B8E"/>
</svg>
