<svg width="50" height="50" viewBox="0 0 50 50" fill="none" xmlns="http://www.w3.org/2000/svg">
<path d="M33.7069 17.7071C34.0975 17.3166 34.0975 16.6834 33.7069 16.2929C33.3164 15.9024 32.6832 15.9024 32.2927 16.2929L33.7069 17.7071ZM16.2927 32.2929C15.9022 32.6834 15.9022 33.3166 16.2927 33.7071C16.6833 34.0976 17.3164 34.0976 17.707 33.7071L16.2927 32.2929ZM17.7073 16.2929C17.3168 15.9024 16.6836 15.9024 16.2931 16.2929C15.9025 16.6834 15.9025 17.3166 16.2931 17.7071L17.7073 16.2929ZM32.293 33.7071C32.6836 34.0976 33.3167 34.0976 33.7073 33.7071C34.0978 33.3166 34.0978 32.6834 33.7073 32.2929L32.293 33.7071ZM32.2927 16.2929L16.2927 32.2929L17.707 33.7071L33.7069 17.7071L32.2927 16.2929ZM16.2931 17.7071L32.293 33.7071L33.7073 32.2929L17.7073 16.2929L16.2931 17.7071ZM48 25C48 37.7025 37.7025 48 25 48V50C38.8071 50 50 38.8071 50 25H48ZM25 48C12.2975 48 2 37.7025 2 25H0C0 38.8071 11.1929 50 25 50V48ZM2 25C2 12.2975 12.2975 2 25 2V0C11.1929 0 0 11.1929 0 25H2ZM25 2C37.7025 2 48 12.2975 48 25H50C50 11.1929 38.8071 0 25 0V2Z" fill="#FB375B"/>
</svg>
