<svg width="86" height="68" viewBox="0 0 86 68" fill="none" xmlns="http://www.w3.org/2000/svg">
<path d="M1 6.00017C1 3.42284 3.08934 1.3335 5.66667 1.3335H80.3333C82.9107 1.3335 85 3.42283 85 6.00016V62.0002C85 64.5775 82.9107 66.6668 80.3333 66.6668H5.66667C3.08934 66.6668 1 64.5775 1 62.0002V6.00017Z" fill="white"/>
<path d="M3.33333 3.66683L36.4003 36.7338C40.0452 40.3787 45.9548 40.3787 49.5997 36.7338L82.6667 3.66683M5.66667 66.6668H80.3333C82.9107 66.6668 85 64.5775 85 62.0002V6.00016C85 3.42283 82.9107 1.3335 80.3333 1.3335H5.66667C3.08934 1.3335 1 3.42284 1 6.00017V62.0002C1 64.5775 3.08934 66.6668 5.66667 66.6668Z" stroke="#333333" stroke-opacity="0.1" stroke-width="2" stroke-linecap="round" stroke-linejoin="round"/>
</svg>
