<svg width="80" height="80" viewBox="0 0 80 80" fill="none" xmlns="http://www.w3.org/2000/svg">
<path d="M40 77.5C60.7107 77.5 77.5 60.7107 77.5 40C77.5 19.2893 60.7107 2.5 40 2.5C19.2893 2.5 2.5 19.2893 2.5 40C2.5 60.7107 19.2893 77.5 40 77.5Z" fill="white"/>
<path d="M56.6667 56.6667C56.6667 56.6667 50.4167 48.3333 40 48.3333C29.5833 48.3333 23.3333 56.6667 23.3333 56.6667" fill="white"/>
<path d="M56.6667 56.6667C56.6667 56.6667 50.4167 48.3333 40 48.3333C29.5833 48.3333 23.3333 56.6667 23.3333 56.6667M27.5 27.5H27.5417M52.5 27.5H52.5417M77.5 40C77.5 60.7107 60.7107 77.5 40 77.5C19.2893 77.5 2.5 60.7107 2.5 40C2.5 19.2893 19.2893 2.5 40 2.5C60.7107 2.5 77.5 19.2893 77.5 40Z" stroke="#D6D6D6" stroke-width="4" stroke-linecap="round" stroke-linejoin="round"/>
</svg>
