<svg width="13" height="13" viewBox="0 0 13 13" fill="none" xmlns="http://www.w3.org/2000/svg">
<path d="M11.2929 12.7071C11.6834 13.0976 12.3166 13.0976 12.7071 12.7071C13.0976 12.3166 13.0976 11.6834 12.7071 11.2929L11.2929 12.7071ZM9.70588 5.85294C9.70588 7.98086 7.98086 9.70588 5.85294 9.70588V11.7059C9.08543 11.7059 11.7059 9.08543 11.7059 5.85294H9.70588ZM5.85294 9.70588C3.72502 9.70588 2 7.98086 2 5.85294H0C0 9.08543 2.62045 11.7059 5.85294 11.7059V9.70588ZM2 5.85294C2 3.72502 3.72502 2 5.85294 2V0C2.62045 0 0 2.62045 0 5.85294H2ZM5.85294 2C7.98086 2 9.70588 3.72502 9.70588 5.85294H11.7059C11.7059 2.62045 9.08543 0 5.85294 0V2ZM12.7071 11.2929L9.9975 8.58328L8.58328 9.9975L11.2929 12.7071L12.7071 11.2929Z" fill="#4542D2"/>
</svg>
