<svg width="26" height="26" viewBox="0 0 26 26" fill="none" xmlns="http://www.w3.org/2000/svg">
<path d="M20.3738 9.70711C20.7643 9.31658 20.7643 8.68342 20.3738 8.29289C19.9832 7.90237 19.3501 7.90237 18.9596 8.29289L20.3738 9.70711ZM10.3333 18.3334L9.6262 19.0405C10.0167 19.431 10.6499 19.431 11.0404 19.0405L10.3333 18.3334ZM7.04036 13.6262C6.64983 13.2357 6.01667 13.2357 5.62614 13.6262C5.23562 14.0168 5.23562 14.6499 5.62615 15.0404L7.04036 13.6262ZM18.9596 8.29289L9.6262 17.6263L11.0404 19.0405L20.3738 9.70711L18.9596 8.29289ZM5.62615 15.0404L9.6262 19.0405L11.0404 17.6263L7.04036 13.6262L5.62615 15.0404ZM24 13C24 19.0751 19.0751 24 13 24V26C20.1797 26 26 20.1797 26 13H24ZM13 24C6.92487 24 2 19.0751 2 13H0C0 20.1797 5.8203 26 13 26V24ZM2 13C2 6.92487 6.92487 2 13 2V0C5.8203 0 0 5.8203 0 13H2ZM13 2C19.0751 2 24 6.92487 24 13H26C26 5.8203 20.1797 0 13 0V2Z" fill="#50D76E"/>
</svg>
