<svg width="25" height="24" viewBox="0 0 25 24" fill="none" xmlns="http://www.w3.org/2000/svg">
<path d="M7.5 9V8C7.5 5.23858 9.73858 3 12.5 3C15.2614 3 17.5 5.23858 17.5 8V9C19.7091 9 21.5 10.7909 21.5 13C21.5 14.4806 20.6956 15.7733 19.5 16.4649M7.5 9C5.29086 9 3.5 10.7909 3.5 13C3.5 14.4806 4.3044 15.7733 5.5 16.4649M7.5 9C7.93285 9 8.34965 9.06875 8.74006 9.19594M12.5 11V21M12.5 11L16.5 15M12.5 11L8.5 15" stroke="#4542D2" stroke-opacity="0.3" stroke-width="2" stroke-linecap="round" stroke-linejoin="round"/>
</svg>
