<svg width="21" height="20" viewBox="0 0 21 20" fill="none" xmlns="http://www.w3.org/2000/svg">
<path d="M5.5 7V6C5.5 3.23858 7.73858 1 10.5 1C13.2614 1 15.5 3.23858 15.5 6V7C17.7091 7 19.5 8.79086 19.5 11C19.5 12.4806 18.6956 13.7733 17.5 14.4649M5.5 7C3.29086 7 1.5 8.79086 1.5 11C1.5 12.4806 2.3044 13.7733 3.5 14.4649M5.5 7C5.93285 7 6.34965 7.06875 6.74006 7.19594M10.5 9V19M10.5 9L14.5 13M10.5 9L6.5 13" stroke="#4542D2" stroke-opacity="0.3" stroke-width="2" stroke-linecap="round" stroke-linejoin="round"/>
</svg>
