<svg width="20" height="21" viewBox="0 0 20 21" fill="none" xmlns="http://www.w3.org/2000/svg">
<path d="M9 15.5C9 16.0523 9.44771 16.5 10 16.5C10.5523 16.5 11 16.0523 11 15.5H9ZM11 8.5C11 7.94772 10.5523 7.5 10 7.5C9.44772 7.5 9 7.94772 9 8.5H11ZM9 5.50996C9 6.06225 9.44771 6.50996 10 6.50996C10.5523 6.50996 11 6.06225 11 5.50996H9ZM11 5.49997C11 4.94768 10.5523 4.49997 10 4.49997C9.44771 4.49997 9 4.94768 9 5.49997H11ZM11 15.5L11 8.5H9L9 15.5H11ZM11 5.50996V5.49997H9V5.50996H11ZM18 10.5C18 14.9183 14.4183 18.5 10 18.5V20.5C15.5228 20.5 20 16.0228 20 10.5H18ZM10 18.5C5.58172 18.5 2 14.9183 2 10.5H0C0 16.0228 4.47715 20.5 10 20.5V18.5ZM2 10.5C2 6.08172 5.58172 2.5 10 2.5V0.5C4.47715 0.5 0 4.97715 0 10.5H2ZM10 2.5C14.4183 2.5 18 6.08172 18 10.5H20C20 4.97715 15.5228 0.5 10 0.5V2.5Z" fill="#408DFF"/>
</svg>
