<svg width="32" height="32" viewBox="0 0 32 32" fill="none" xmlns="http://www.w3.org/2000/svg">
<path d="M16.75 9.33333C16.75 8.91912 16.4142 8.58333 16 8.58333C15.5858 8.58333 15.25 8.91912 15.25 9.33333H16.75ZM15.25 18.6667C15.25 19.0809 15.5858 19.4167 16 19.4167C16.4142 19.4167 16.75 19.0809 16.75 18.6667H15.25ZM16.75 22.6533C16.75 22.2391 16.4142 21.9033 16 21.9033C15.5858 21.9033 15.25 22.2391 15.25 22.6533H16.75ZM15.25 22.6667C15.25 23.0809 15.5858 23.4167 16 23.4167C16.4142 23.4167 16.75 23.0809 16.75 22.6667H15.25ZM15.25 9.33333V18.6667H16.75V9.33333H15.25ZM15.25 22.6533V22.6667H16.75V22.6533H15.25ZM27.25 16C27.25 22.2132 22.2132 27.25 16 27.25V28.75C23.0416 28.75 28.75 23.0416 28.75 16H27.25ZM16 27.25C9.7868 27.25 4.75 22.2132 4.75 16H3.25C3.25 23.0416 8.95837 28.75 16 28.75V27.25ZM4.75 16C4.75 9.7868 9.7868 4.75 16 4.75V3.25C8.95837 3.25 3.25 8.95837 3.25 16H4.75ZM16 4.75C22.2132 4.75 27.25 9.7868 27.25 16H28.75C28.75 8.95837 23.0416 3.25 16 3.25V4.75Z" fill="#FB375B"/>
</svg>
