<svg width="20" height="20" viewBox="0 0 20 20" fill="none" xmlns="http://www.w3.org/2000/svg">
<path d="M11 5C11 4.44772 10.5523 4 10 4C9.44771 4 9 4.44772 9 5H11ZM9 12C9 12.5523 9.44771 13 10 13C10.5523 13 11 12.5523 11 12H9ZM11 14.99C11 14.4377 10.5523 13.99 10 13.99C9.44771 13.99 9 14.4377 9 14.99H11ZM9 15C9 15.5523 9.44771 16 10 16C10.5523 16 11 15.5523 11 15H9ZM9 5V12H11V5H9ZM9 14.99V15H11V14.99H9ZM18 10C18 14.4183 14.4183 18 10 18V20C15.5228 20 20 15.5228 20 10H18ZM10 18C5.58172 18 2 14.4183 2 10H0C0 15.5228 4.47715 20 10 20V18ZM2 10C2 5.58172 5.58172 2 10 2V0C4.47715 0 0 4.47715 0 10H2ZM10 2C14.4183 2 18 5.58172 18 10H20C20 4.47715 15.5228 0 10 0V2Z" fill="#FF7410"/>
</svg>
