<svg xmlns="http://www.w3.org/2000/svg" width="32" height="32"><rect fill="#5450e3" width="28" height="28" x="-30" y="-30" rx="14" transform="matrix(0 -1 -1 0 0 0)"/><path d="M8 20l8 3 8-3v2l-8 3-8-3zm0-4l8 3 8-3v2l-8 3-8-3zm8-7l-8 3v2l8 3 8-3v-2z" opacity=".2"/><path fill="#fff" opacity=".2" d="M16 2A13.97 13.97 0 0 0 2 16c0 .169.019.333.025.5C2.289 8.979 8.413 3 16 3s13.711 5.979 13.975 13.5c.005-.167.025-.331.025-.5A13.97 13.97 0 0 0 16 2z"/><path opacity=".2" d="M2.025 15.5L2 16a13.97 13.97 0 0 0 14 14 13.97 13.97 0 0 0 14-14c0-.169-.02-.333-.025-.5C29.711 23.021 23.587 29 16 29S2.289 23.021 2.025 15.5z"/><path d="M8 19l8 3 8-3v2l-8 3-8-3zm0-4l8 3 8-3v2l-8 3-8-3zm8-7l-8 3v2l8 3 8-3v-2z" fill="#b49eff"/></svg>