<svg width="22" height="20" viewBox="0 0 22 20" fill="none" xmlns="http://www.w3.org/2000/svg">
<path d="M5.44444 6.79285V5.82738C5.44444 3.16129 7.93175 1 11 1C14.0682 1 16.5556 3.16129 16.5556 5.82738V6.79285C19.0102 6.79285 21 8.52188 21 10.6548C21 12.0842 20.1062 13.3323 18.7778 14M5.44444 6.79285C2.98985 6.79285 1 8.52188 1 10.6548C1 12.0842 1.89377 13.3323 3.22222 14M5.44444 6.79285C5.92539 6.79285 6.3885 6.85923 6.82229 6.98202" stroke="#D0CFF3" stroke-width="2" stroke-linecap="round" stroke-linejoin="round"/>
<path d="M11 19L11 9M11 19L7 15M11 19L15 15" stroke="#D0CFF3" stroke-width="2" stroke-linecap="round" stroke-linejoin="round"/>
</svg>
