<svg width="50" height="50" viewBox="0 0 50 50" fill="none" xmlns="http://www.w3.org/2000/svg">
<path d="M39.0404 17.7071C39.431 17.3166 39.431 16.6834 39.0404 16.2929C38.6499 15.9024 38.0168 15.9024 37.6262 16.2929L39.0404 17.7071ZM19.6666 35.6667L18.9595 36.3738C19.35 36.7644 19.9832 36.7644 20.3737 36.3738L19.6666 35.6667ZM12.3736 26.9596C11.9831 26.569 11.3499 26.569 10.9594 26.9596C10.5689 27.3501 10.5689 27.9833 10.9594 28.3738L12.3736 26.9596ZM37.6262 16.2929L18.9595 34.9596L20.3737 36.3738L39.0404 17.7071L37.6262 16.2929ZM10.9594 28.3738L18.9595 36.3738L20.3737 34.9596L12.3736 26.9596L10.9594 28.3738ZM48 25C48 37.7025 37.7025 48 25 48V50C38.8071 50 50 38.8071 50 25H48ZM25 48C12.2975 48 2 37.7025 2 25H0C0 38.8071 11.1929 50 25 50V48ZM2 25C2 12.2975 12.2975 2 25 2V0C11.1929 0 0 11.1929 0 25H2ZM25 2C37.7025 2 48 12.2975 48 25H50C50 11.1929 38.8071 0 25 0V2Z" fill="#50D76E"/>
</svg>
