<svg width="26" height="26" viewBox="0 0 26 26" fill="none" xmlns="http://www.w3.org/2000/svg">
<path d="M6.33333 9V7.66667C6.33333 3.98477 9.3181 1 13 1C16.6819 1 19.6667 3.98477 19.6667 7.66667V9C22.6122 9 25 11.3878 25 14.3333C25 16.3074 23.9275 18.031 22.3333 18.9532M6.33333 9C3.38781 9 1 11.3878 1 14.3333C1 16.3074 2.07253 18.031 3.66667 18.9532M6.33333 9C6.91047 9 7.4662 9.09167 7.98675 9.26125M13 11.6667V25M13 11.6667L18.3333 17M13 11.6667L7.66667 17" stroke="#4542D2" stroke-width="2" stroke-linecap="round" stroke-linejoin="round"/>
</svg>
