<svg width="24" height="24" viewBox="0 0 24 24" fill="none" xmlns="http://www.w3.org/2000/svg">
<path d="M13 7C13 6.44772 12.5523 6 12 6C11.4477 6 11 6.44772 11 7H13ZM11 14C11 14.5523 11.4477 15 12 15C12.5523 15 13 14.5523 13 14H11ZM13 16.99C13 16.4377 12.5523 15.99 12 15.99C11.4477 15.99 11 16.4377 11 16.99H13ZM11 17C11 17.5523 11.4477 18 12 18C12.5523 18 13 17.5523 13 17H11ZM11 7V14H13V7H11ZM11 16.99V17H13V16.99H11ZM20 12C20 16.4183 16.4183 20 12 20V22C17.5228 22 22 17.5228 22 12H20ZM12 20C7.58172 20 4 16.4183 4 12H2C2 17.5228 6.47715 22 12 22V20ZM4 12C4 7.58172 7.58172 4 12 4V2C6.47715 2 2 6.47715 2 12H4ZM12 4C16.4183 4 20 7.58172 20 12H22C22 6.47715 17.5228 2 12 2V4Z" fill="#FF50B9"/>
</svg>
