<svg width="12" height="12" viewBox="0 0 12 12" fill="none" xmlns="http://www.w3.org/2000/svg">
<path d="M5.5 8.91667C5.5 9.19281 5.72386 9.41667 6 9.41667C6.27614 9.41667 6.5 9.19281 6.5 8.91667H5.5ZM6.5 4.83333C6.5 4.55719 6.27614 4.33333 6 4.33333C5.72386 4.33333 5.5 4.55719 5.5 4.83333L6.5 4.83333ZM5.5 3.08915C5.5 3.36529 5.72386 3.58915 6 3.58915C6.27614 3.58915 6.5 3.36529 6.5 3.08915H5.5ZM6.5 3.08332C6.5 2.80717 6.27614 2.58332 6 2.58332C5.72386 2.58332 5.5 2.80717 5.5 3.08332H6.5ZM6.5 8.91667L6.5 4.83333L5.5 4.83333L5.5 8.91667H6.5ZM6.5 3.08915V3.08332H5.5V3.08915H6.5ZM10.75 6C10.75 8.62335 8.62335 10.75 6 10.75V11.75C9.17564 11.75 11.75 9.17564 11.75 6H10.75ZM6 10.75C3.37665 10.75 1.25 8.62335 1.25 6H0.25C0.25 9.17564 2.82436 11.75 6 11.75V10.75ZM1.25 6C1.25 3.37665 3.37665 1.25 6 1.25V0.25C2.82436 0.25 0.25 2.82436 0.25 6H1.25ZM6 1.25C8.62335 1.25 10.75 3.37665 10.75 6H11.75C11.75 2.82436 9.17564 0.25 6 0.25V1.25Z" fill="#408DFF"/>
</svg>
